<svg width="44" height="44" viewBox="0 0 44 44" fill="none" xmlns="http://www.w3.org/2000/svg">
<rect width="44" height="44" rx="6.28571" fill="#1C1F1E"/>
<path opacity="0.4" d="M27.2138 11.25H17.7863C13.6912 11.25 11.25 13.6912 11.25 17.7863V27.2025C11.25 31.3088 13.6912 33.75 17.7863 33.75H27.2025C31.2975 33.75 33.7388 31.3088 33.7388 27.2138V17.7863C33.75 13.6912 31.3088 11.25 27.2138 11.25Z" fill="white"/>
<path d="M26.7188 19.9688H18.2812C17.82 19.9688 17.4375 19.5862 17.4375 19.125C17.4375 18.6637 17.82 18.2812 18.2812 18.2812H26.7188C27.18 18.2812 27.5625 18.6637 27.5625 19.125C27.5625 19.5862 27.18 19.9688 26.7188 19.9688Z" fill="#FDDFE1"/>
<path d="M26.7188 26.7188H18.2812C17.82 26.7188 17.4375 26.3362 17.4375 25.875C17.4375 25.4137 17.82 25.0312 18.2812 25.0312H26.7188C27.18 25.0312 27.5625 25.4137 27.5625 25.875C27.5625 26.3362 27.18 26.7188 26.7188 26.7188Z" fill="#FDDFE1"/>
</svg>
