<svg width="470" height="538" viewBox="0 0 470 538" fill="none" xmlns="http://www.w3.org/2000/svg">
<g clip-path="url(#clip0_1436_7058)">
<rect width="470" height="538" rx="20" fill="url(#paint0_linear_1436_7058)" fill-opacity="0.3"/>
<g clip-path="url(#clip1_1436_7058)">
<rect x="32" y="91" width="513.577" height="319" rx="12.8797" fill="white"/>
<rect x="32" y="91" width="513.577" height="319" rx="12.8797" fill="#0F0F0F"/>
<g clip-path="url(#clip2_1436_7058)" filter="url(#filter0_f_1436_7058)">
<mask id="mask0_1436_7058" style="mask-type:alpha" maskUnits="userSpaceOnUse" x="396" y="211" width="268" height="290">
<path d="M501.405 480.437C514.487 507.891 553.527 507.79 566.594 480.328L663.079 277.56C663.079 277.56 628.432 300.435 586.964 293.078C555.695 287.53 498.795 228.514 436.393 212.722C404.368 204.617 387.336 241.399 401.589 271.201C429.257 329.053 472.009 418.738 501.405 480.437Z" fill="#D9D9D9"/>
</mask>
<g mask="url(#mask0_1436_7058)">
<path d="M501.392 480.407C514.468 507.869 553.514 507.771 566.583 480.305L663.057 277.56C663.057 277.56 628.411 300.435 586.942 293.078C557.25 287.81 505.131 235.657 446.84 217.511C410.567 206.219 390.604 248.074 406.98 282.353C434.308 339.557 473.738 422.33 501.392 480.407Z" fill="#FC969A"/>
<path d="M475.179 559.892C488.26 587.346 527.3 587.245 540.367 559.783L636.852 357.015C636.852 357.015 602.206 379.89 560.737 372.533C519.268 365.175 432.719 263.778 348.043 293.876C350.5 298.317 429.186 463.36 475.179 559.892Z" fill="#F16E7B"/>
<path d="M464.222 627.048C477.303 654.503 516.343 654.401 529.41 626.94L625.895 424.172C625.895 424.172 591.249 447.046 549.78 439.689C508.311 432.332 421.762 330.934 337.086 361.032C339.543 365.473 418.229 530.516 464.222 627.048Z" fill="#0DD467"/>
</g>
</g>
<rect x="220" y="118" width="233" height="46" rx="9.85942" fill="url(#paint1_linear_1436_7058)" fill-opacity="0.3"/>
<rect x="220" y="118" width="233" height="46" rx="9.85942" stroke="url(#paint2_linear_1436_7058)" stroke-width="0.758417"/>
<path d="M235.031 138V129.384H236.124V138H235.031ZM248.675 131.666H249.707L247.013 138H246.079L244.853 135.015L243.639 138H242.705L240.011 131.666H241.031L243.215 136.944L244.234 134.347L243.166 131.678H244.101L244.853 133.692L245.605 131.678H246.54L245.484 134.347L246.503 136.944L248.675 131.666ZM250.054 136.168C250.054 135.763 250.167 135.415 250.394 135.124C250.628 134.825 250.948 134.594 251.352 134.432C251.757 134.271 252.226 134.19 252.76 134.19C253.043 134.19 253.342 134.214 253.658 134.263C253.973 134.303 254.252 134.368 254.495 134.457V133.996C254.495 133.51 254.349 133.13 254.058 132.855C253.767 132.572 253.354 132.43 252.82 132.43C252.473 132.43 252.137 132.495 251.813 132.624C251.498 132.746 251.162 132.924 250.806 133.158L250.418 132.406C250.83 132.123 251.243 131.912 251.656 131.775C252.068 131.629 252.497 131.556 252.942 131.556C253.751 131.556 254.39 131.783 254.859 132.236C255.328 132.681 255.563 133.304 255.563 134.105V136.787C255.563 136.916 255.587 137.013 255.636 137.078C255.692 137.134 255.781 137.167 255.903 137.175V138C255.798 138.016 255.705 138.028 255.624 138.036C255.551 138.044 255.49 138.049 255.442 138.049C255.191 138.049 255.001 137.98 254.871 137.842C254.75 137.705 254.681 137.559 254.665 137.405L254.641 137.005C254.366 137.361 254.006 137.636 253.561 137.83C253.116 138.024 252.675 138.121 252.238 138.121C251.817 138.121 251.441 138.036 251.11 137.867C250.778 137.689 250.519 137.454 250.333 137.163C250.147 136.863 250.054 136.532 250.054 136.168ZM254.18 136.617C254.277 136.503 254.354 136.39 254.41 136.277C254.467 136.156 254.495 136.054 254.495 135.974V135.185C254.244 135.088 253.981 135.015 253.706 134.966C253.431 134.91 253.16 134.881 252.893 134.881C252.351 134.881 251.91 134.991 251.571 135.209C251.239 135.419 251.073 135.711 251.073 136.083C251.073 136.285 251.126 136.483 251.231 136.677C251.344 136.863 251.506 137.017 251.716 137.138C251.935 137.26 252.202 137.32 252.517 137.32C252.849 137.32 253.164 137.256 253.464 137.126C253.763 136.989 254.002 136.819 254.18 136.617ZM262.767 138H261.7V134.457C261.7 133.785 261.594 133.296 261.384 132.988C261.182 132.673 260.87 132.515 260.45 132.515C260.158 132.515 259.867 132.588 259.576 132.734C259.293 132.879 259.038 133.077 258.812 133.328C258.593 133.571 258.435 133.854 258.338 134.178V138H257.27V131.666H258.241V133.025C258.411 132.725 258.629 132.467 258.896 132.248C259.163 132.03 259.467 131.86 259.807 131.739C260.146 131.617 260.502 131.556 260.874 131.556C261.238 131.556 261.542 131.625 261.785 131.763C262.035 131.892 262.229 132.078 262.367 132.321C262.513 132.556 262.614 132.835 262.67 133.158C262.735 133.482 262.767 133.834 262.767 134.214V138ZM267.645 137.684C267.556 137.725 267.435 137.778 267.281 137.842C267.127 137.907 266.949 137.964 266.747 138.012C266.545 138.061 266.33 138.085 266.104 138.085C265.845 138.085 265.606 138.04 265.388 137.951C265.17 137.854 264.996 137.709 264.866 137.515C264.737 137.312 264.672 137.062 264.672 136.762V132.503H263.811V131.666H264.672V129.554H265.74V131.666H267.16V132.503H265.74V136.435C265.756 136.661 265.833 136.831 265.971 136.944C266.108 137.049 266.27 137.102 266.456 137.102C266.666 137.102 266.86 137.066 267.038 136.993C267.216 136.92 267.334 136.867 267.39 136.835L267.645 137.684ZM271.207 136.168C271.207 135.763 271.32 135.415 271.546 135.124C271.781 134.825 272.1 134.594 272.505 134.432C272.909 134.271 273.379 134.19 273.913 134.19C274.196 134.19 274.495 134.214 274.811 134.263C275.126 134.303 275.405 134.368 275.648 134.457V133.996C275.648 133.51 275.502 133.13 275.211 132.855C274.92 132.572 274.507 132.43 273.973 132.43C273.625 132.43 273.29 132.495 272.966 132.624C272.651 132.746 272.315 132.924 271.959 133.158L271.571 132.406C271.983 132.123 272.396 131.912 272.808 131.775C273.221 131.629 273.65 131.556 274.095 131.556C274.904 131.556 275.543 131.783 276.012 132.236C276.481 132.681 276.716 133.304 276.716 134.105V136.787C276.716 136.916 276.74 137.013 276.788 137.078C276.845 137.134 276.934 137.167 277.055 137.175V138C276.95 138.016 276.857 138.028 276.776 138.036C276.704 138.044 276.643 138.049 276.594 138.049C276.344 138.049 276.153 137.98 276.024 137.842C275.903 137.705 275.834 137.559 275.818 137.405L275.793 137.005C275.518 137.361 275.158 137.636 274.713 137.83C274.268 138.024 273.828 138.121 273.391 138.121C272.97 138.121 272.594 138.036 272.262 137.867C271.931 137.689 271.672 137.454 271.486 137.163C271.3 136.863 271.207 136.532 271.207 136.168ZM275.332 136.617C275.429 136.503 275.506 136.39 275.563 136.277C275.619 136.156 275.648 136.054 275.648 135.974V135.185C275.397 135.088 275.134 135.015 274.859 134.966C274.584 134.91 274.313 134.881 274.046 134.881C273.504 134.881 273.063 134.991 272.723 135.209C272.392 135.419 272.226 135.711 272.226 136.083C272.226 136.285 272.278 136.483 272.384 136.677C272.497 136.863 272.659 137.017 272.869 137.138C273.087 137.26 273.354 137.32 273.67 137.32C274.002 137.32 274.317 137.256 274.616 137.126C274.916 136.989 275.154 136.819 275.332 136.617ZM284.902 138.121C284.384 138.121 283.923 137.992 283.519 137.733C283.114 137.474 282.795 137.147 282.56 136.75V140.585H281.492V131.666H282.439V132.855C282.69 132.467 283.017 132.155 283.422 131.921C283.826 131.678 284.267 131.556 284.744 131.556C285.181 131.556 285.582 131.645 285.946 131.823C286.31 132.001 286.625 132.244 286.892 132.552C287.159 132.859 287.366 133.211 287.511 133.607C287.665 133.996 287.742 134.404 287.742 134.833C287.742 135.431 287.62 135.982 287.378 136.483C287.143 136.985 286.811 137.385 286.383 137.684C285.954 137.976 285.46 138.121 284.902 138.121ZM284.575 137.199C284.89 137.199 285.173 137.134 285.424 137.005C285.683 136.867 285.901 136.689 286.079 136.471C286.265 136.245 286.407 135.99 286.504 135.707C286.601 135.423 286.65 135.132 286.65 134.833C286.65 134.517 286.593 134.218 286.48 133.935C286.375 133.652 286.221 133.401 286.019 133.183C285.824 132.964 285.594 132.794 285.327 132.673C285.068 132.543 284.785 132.479 284.477 132.479C284.283 132.479 284.081 132.515 283.871 132.588C283.669 132.661 283.474 132.766 283.288 132.903C283.102 133.033 282.944 133.183 282.815 133.352C282.686 133.522 282.601 133.704 282.56 133.898V135.707C282.682 135.982 282.843 136.232 283.046 136.459C283.248 136.685 283.482 136.867 283.749 137.005C284.016 137.134 284.291 137.199 284.575 137.199ZM292.402 132.6C291.868 132.608 291.395 132.746 290.982 133.013C290.578 133.272 290.291 133.632 290.121 134.093V138H289.053V131.666H290.048V133.134C290.266 132.697 290.553 132.345 290.909 132.078C291.273 131.803 291.654 131.65 292.05 131.617C292.131 131.617 292.2 131.617 292.256 131.617C292.313 131.617 292.362 131.621 292.402 131.629V132.6ZM296.086 138.121C295.608 138.121 295.176 138.036 294.787 137.867C294.399 137.689 294.063 137.45 293.78 137.151C293.497 136.843 293.278 136.491 293.125 136.095C292.971 135.698 292.894 135.282 292.894 134.845C292.894 134.4 292.971 133.979 293.125 133.583C293.278 133.187 293.497 132.839 293.78 132.539C294.063 132.232 294.399 131.993 294.787 131.823C295.184 131.645 295.62 131.556 296.098 131.556C296.567 131.556 296.996 131.645 297.384 131.823C297.772 131.993 298.108 132.232 298.391 132.539C298.682 132.839 298.905 133.187 299.059 133.583C299.212 133.979 299.289 134.4 299.289 134.845C299.289 135.282 299.212 135.698 299.059 136.095C298.905 136.491 298.686 136.843 298.403 137.151C298.12 137.45 297.78 137.689 297.384 137.867C296.996 138.036 296.563 138.121 296.086 138.121ZM293.986 134.857C293.986 135.294 294.079 135.69 294.265 136.046C294.46 136.402 294.714 136.685 295.03 136.896C295.345 137.098 295.697 137.199 296.086 137.199C296.474 137.199 296.826 137.094 297.141 136.884C297.465 136.673 297.72 136.39 297.906 136.034C298.1 135.67 298.197 135.27 298.197 134.833C298.197 134.396 298.1 134 297.906 133.644C297.72 133.288 297.465 133.005 297.141 132.794C296.826 132.584 296.474 132.479 296.086 132.479C295.697 132.479 295.345 132.588 295.03 132.806C294.714 133.017 294.46 133.3 294.265 133.656C294.079 134.012 293.986 134.412 293.986 134.857ZM300.171 134.845C300.171 134.246 300.292 133.7 300.535 133.207C300.785 132.705 301.125 132.305 301.554 132.005C301.991 131.706 302.488 131.556 303.046 131.556C303.556 131.556 304.013 131.69 304.418 131.957C304.822 132.224 305.138 132.547 305.364 132.928V129.142H306.432V136.787C306.432 136.916 306.456 137.013 306.505 137.078C306.561 137.134 306.65 137.167 306.772 137.175V138C306.57 138.032 306.412 138.049 306.299 138.049C306.088 138.049 305.902 137.976 305.74 137.83C305.587 137.684 305.51 137.523 305.51 137.345V136.811C305.259 137.215 304.923 137.535 304.503 137.769C304.082 138.004 303.645 138.121 303.192 138.121C302.755 138.121 302.351 138.036 301.979 137.867C301.615 137.689 301.295 137.446 301.02 137.138C300.753 136.831 300.543 136.483 300.389 136.095C300.243 135.698 300.171 135.282 300.171 134.845ZM305.364 135.779V133.959C305.267 133.684 305.109 133.437 304.891 133.219C304.673 132.992 304.426 132.814 304.151 132.685C303.884 132.547 303.617 132.479 303.35 132.479C303.034 132.479 302.747 132.547 302.488 132.685C302.237 132.814 302.019 132.992 301.833 133.219C301.655 133.437 301.518 133.688 301.42 133.971C301.323 134.254 301.275 134.55 301.275 134.857C301.275 135.173 301.327 135.472 301.433 135.755C301.546 136.038 301.7 136.289 301.894 136.507C302.096 136.726 302.326 136.896 302.585 137.017C302.852 137.138 303.14 137.199 303.447 137.199C303.641 137.199 303.839 137.163 304.042 137.09C304.252 137.017 304.45 136.916 304.636 136.787C304.822 136.657 304.98 136.507 305.109 136.338C305.239 136.16 305.324 135.974 305.364 135.779ZM308.154 135.464V131.666H309.222V135.258C309.222 135.905 309.335 136.39 309.562 136.714C309.788 137.037 310.124 137.199 310.569 137.199C310.86 137.199 311.139 137.138 311.406 137.017C311.681 136.888 311.928 136.706 312.146 136.471C312.365 136.236 312.535 135.957 312.656 135.634V131.666H313.724V136.787C313.724 136.916 313.748 137.013 313.797 137.078C313.853 137.134 313.942 137.167 314.064 137.175V138C313.942 138.016 313.845 138.024 313.772 138.024C313.708 138.032 313.643 138.036 313.578 138.036C313.376 138.036 313.202 137.976 313.056 137.854C312.911 137.725 312.834 137.567 312.826 137.381L312.802 136.641C312.527 137.11 312.154 137.474 311.685 137.733C311.224 137.992 310.718 138.121 310.168 138.121C309.505 138.121 309.003 137.899 308.664 137.454C308.324 137.001 308.154 136.338 308.154 135.464ZM318.306 138.121C317.828 138.121 317.392 138.036 316.995 137.867C316.607 137.689 316.267 137.446 315.976 137.138C315.693 136.831 315.47 136.479 315.308 136.083C315.155 135.686 315.078 135.266 315.078 134.821C315.078 134.222 315.211 133.676 315.478 133.183C315.745 132.689 316.121 132.297 316.607 132.005C317.092 131.706 317.655 131.556 318.294 131.556C318.917 131.556 319.459 131.698 319.92 131.981C320.389 132.256 320.737 132.628 320.963 133.098L319.92 133.425C319.758 133.126 319.531 132.895 319.24 132.734C318.949 132.564 318.625 132.479 318.269 132.479C317.881 132.479 317.525 132.58 317.201 132.782C316.886 132.984 316.635 133.263 316.449 133.619C316.263 133.967 316.17 134.368 316.17 134.821C316.17 135.266 316.263 135.67 316.449 136.034C316.643 136.39 316.898 136.673 317.214 136.884C317.537 137.094 317.893 137.199 318.281 137.199C318.532 137.199 318.771 137.155 318.997 137.066C319.232 136.977 319.434 136.859 319.604 136.714C319.782 136.56 319.903 136.394 319.968 136.216L321.012 136.532C320.882 136.839 320.684 137.114 320.417 137.357C320.158 137.591 319.847 137.778 319.483 137.915C319.127 138.053 318.734 138.121 318.306 138.121ZM325.498 137.684C325.409 137.725 325.288 137.778 325.134 137.842C324.98 137.907 324.802 137.964 324.6 138.012C324.398 138.061 324.183 138.085 323.957 138.085C323.698 138.085 323.459 138.04 323.241 137.951C323.023 137.854 322.849 137.709 322.719 137.515C322.59 137.312 322.525 137.062 322.525 136.762V132.503H321.664V131.666H322.525V129.554H323.593V131.666H325.013V132.503H323.593V136.435C323.609 136.661 323.686 136.831 323.823 136.944C323.961 137.049 324.123 137.102 324.309 137.102C324.519 137.102 324.713 137.066 324.891 136.993C325.069 136.92 325.187 136.867 325.243 136.835L325.498 137.684ZM332.906 132.6C332.372 132.608 331.899 132.746 331.486 133.013C331.082 133.272 330.795 133.632 330.625 134.093V138H329.557V131.666H330.552V133.134C330.771 132.697 331.058 132.345 331.414 132.078C331.778 131.803 332.158 131.65 332.554 131.617C332.635 131.617 332.704 131.617 332.761 131.617C332.817 131.617 332.866 131.621 332.906 131.629V132.6ZM336.626 138.121C336.149 138.121 335.712 138.036 335.316 137.867C334.927 137.689 334.588 137.45 334.296 137.151C334.013 136.843 333.791 136.491 333.629 136.095C333.475 135.698 333.398 135.278 333.398 134.833C333.398 134.234 333.536 133.688 333.811 133.195C334.086 132.701 334.466 132.305 334.952 132.005C335.445 131.706 336.007 131.556 336.638 131.556C337.277 131.556 337.832 131.71 338.301 132.018C338.778 132.317 339.146 132.713 339.405 133.207C339.672 133.692 339.806 134.218 339.806 134.784C339.806 134.865 339.801 134.946 339.793 135.027C339.793 135.1 339.789 135.156 339.781 135.197H334.527C334.559 135.609 334.673 135.978 334.867 136.301C335.069 136.617 335.328 136.867 335.643 137.053C335.959 137.231 336.299 137.32 336.663 137.32C337.051 137.32 337.415 137.223 337.755 137.029C338.103 136.835 338.341 136.58 338.471 136.265L339.393 136.52C339.255 136.827 339.049 137.102 338.774 137.345C338.507 137.587 338.188 137.778 337.815 137.915C337.451 138.053 337.055 138.121 336.626 138.121ZM334.491 134.457H338.81C338.778 134.044 338.661 133.68 338.459 133.365C338.256 133.049 337.997 132.802 337.682 132.624C337.366 132.446 337.019 132.357 336.638 132.357C336.266 132.357 335.922 132.446 335.607 132.624C335.291 132.802 335.033 133.049 334.83 133.365C334.636 133.68 334.523 134.044 334.491 134.457ZM343.419 138.121C342.999 138.121 342.615 138.032 342.267 137.854C341.919 137.676 341.62 137.438 341.369 137.138C341.118 136.831 340.924 136.479 340.786 136.083C340.649 135.686 340.58 135.27 340.58 134.833C340.58 134.388 340.657 133.967 340.811 133.571C340.964 133.174 341.175 132.827 341.442 132.527C341.717 132.228 342.036 131.993 342.4 131.823C342.764 131.645 343.157 131.556 343.577 131.556C344.071 131.556 344.52 131.682 344.924 131.933C345.329 132.175 345.648 132.487 345.883 132.867V131.666H346.829V140.585H345.761V136.75C345.179 137.664 344.398 138.121 343.419 138.121ZM343.784 137.199C344.083 137.199 344.354 137.138 344.597 137.017C344.847 136.896 345.07 136.734 345.264 136.532C345.458 136.321 345.624 136.091 345.761 135.84V134.02C345.729 133.809 345.648 133.615 345.519 133.437C345.389 133.251 345.232 133.085 345.046 132.94C344.859 132.794 344.657 132.681 344.439 132.6C344.228 132.519 344.018 132.479 343.808 132.479C343.492 132.479 343.205 132.547 342.946 132.685C342.687 132.814 342.461 132.992 342.267 133.219C342.081 133.445 341.935 133.7 341.83 133.983C341.725 134.267 341.672 134.558 341.672 134.857C341.672 135.278 341.761 135.666 341.939 136.022C342.125 136.378 342.376 136.665 342.691 136.884C343.007 137.094 343.371 137.199 343.784 137.199ZM348.492 135.464V131.666H349.56V135.258C349.56 135.905 349.673 136.39 349.9 136.714C350.126 137.037 350.462 137.199 350.907 137.199C351.198 137.199 351.477 137.138 351.744 137.017C352.019 136.888 352.266 136.706 352.485 136.471C352.703 136.236 352.873 135.957 352.994 135.634V131.666H354.062V136.787C354.062 136.916 354.086 137.013 354.135 137.078C354.192 137.134 354.281 137.167 354.402 137.175V138C354.281 138.016 354.184 138.024 354.111 138.024C354.046 138.032 353.981 138.036 353.917 138.036C353.714 138.036 353.54 137.976 353.395 137.854C353.249 137.725 353.172 137.567 353.164 137.381L353.14 136.641C352.865 137.11 352.493 137.474 352.024 137.733C351.562 137.992 351.057 138.121 350.507 138.121C349.843 138.121 349.342 137.899 349.002 137.454C348.662 137.001 348.492 136.338 348.492 135.464ZM355.841 138V131.666H356.909V138H355.841ZM355.841 130.477V129.142H356.909V130.477H355.841ZM361.987 132.6C361.453 132.608 360.98 132.746 360.567 133.013C360.163 133.272 359.875 133.632 359.705 134.093V138H358.638V131.666H359.633V133.134C359.851 132.697 360.138 132.345 360.494 132.078C360.858 131.803 361.238 131.65 361.635 131.617C361.716 131.617 361.785 131.617 361.841 131.617C361.898 131.617 361.946 131.621 361.987 131.629V132.6ZM365.707 138.121C365.229 138.121 364.793 138.036 364.396 137.867C364.008 137.689 363.668 137.45 363.377 137.151C363.094 136.843 362.871 136.491 362.71 136.095C362.556 135.698 362.479 135.278 362.479 134.833C362.479 134.234 362.616 133.688 362.892 133.195C363.167 132.701 363.547 132.305 364.032 132.005C364.526 131.706 365.088 131.556 365.719 131.556C366.358 131.556 366.912 131.71 367.381 132.018C367.859 132.317 368.227 132.713 368.486 133.207C368.753 133.692 368.886 134.218 368.886 134.784C368.886 134.865 368.882 134.946 368.874 135.027C368.874 135.1 368.87 135.156 368.862 135.197H363.607C363.64 135.609 363.753 135.978 363.947 136.301C364.15 136.617 364.408 136.867 364.724 137.053C365.039 137.231 365.379 137.32 365.743 137.32C366.131 137.32 366.496 137.223 366.835 137.029C367.183 136.835 367.422 136.58 367.551 136.265L368.473 136.52C368.336 136.827 368.13 137.102 367.855 137.345C367.588 137.587 367.268 137.778 366.896 137.915C366.532 138.053 366.136 138.121 365.707 138.121ZM363.571 134.457H367.891C367.859 134.044 367.741 133.68 367.539 133.365C367.337 133.049 367.078 132.802 366.763 132.624C366.447 132.446 366.099 132.357 365.719 132.357C365.347 132.357 365.003 132.446 364.687 132.624C364.372 132.802 364.113 133.049 363.911 133.365C363.717 133.68 363.603 134.044 363.571 134.457ZM379.623 138H378.555V134.457C378.555 133.793 378.446 133.304 378.228 132.988C378.017 132.673 377.702 132.515 377.281 132.515C376.852 132.515 376.464 132.673 376.116 132.988C375.768 133.296 375.522 133.696 375.376 134.19V138H374.308V134.457C374.308 133.785 374.203 133.296 373.993 132.988C373.782 132.673 373.467 132.515 373.046 132.515C372.625 132.515 372.237 132.669 371.881 132.976C371.533 133.276 371.287 133.676 371.141 134.178V138H370.073V131.666H371.044V133.025C371.303 132.556 371.638 132.196 372.051 131.945C372.464 131.686 372.929 131.556 373.447 131.556C373.972 131.556 374.393 131.702 374.709 131.993C375.024 132.276 375.218 132.645 375.291 133.098C375.574 132.596 375.918 132.216 376.322 131.957C376.727 131.69 377.188 131.556 377.706 131.556C378.07 131.556 378.373 131.625 378.616 131.763C378.867 131.892 379.065 132.078 379.211 132.321C379.356 132.556 379.461 132.835 379.526 133.158C379.591 133.482 379.623 133.834 379.623 134.214V138ZM384.087 138.121C383.609 138.121 383.172 138.036 382.776 137.867C382.388 137.689 382.048 137.45 381.757 137.151C381.474 136.843 381.251 136.491 381.089 136.095C380.936 135.698 380.859 135.278 380.859 134.833C380.859 134.234 380.996 133.688 381.271 133.195C381.546 132.701 381.927 132.305 382.412 132.005C382.905 131.706 383.468 131.556 384.099 131.556C384.738 131.556 385.292 131.71 385.761 132.018C386.238 132.317 386.607 132.713 386.865 133.207C387.132 133.692 387.266 134.218 387.266 134.784C387.266 134.865 387.262 134.946 387.254 135.027C387.254 135.1 387.25 135.156 387.242 135.197H381.987C382.02 135.609 382.133 135.978 382.327 136.301C382.529 136.617 382.788 136.867 383.104 137.053C383.419 137.231 383.759 137.32 384.123 137.32C384.511 137.32 384.875 137.223 385.215 137.029C385.563 136.835 385.802 136.58 385.931 136.265L386.853 136.52C386.716 136.827 386.509 137.102 386.234 137.345C385.967 137.587 385.648 137.778 385.276 137.915C384.912 138.053 384.515 138.121 384.087 138.121ZM381.951 134.457H386.271C386.238 134.044 386.121 133.68 385.919 133.365C385.717 133.049 385.458 132.802 385.142 132.624C384.827 132.446 384.479 132.357 384.099 132.357C383.727 132.357 383.383 132.446 383.067 132.624C382.752 132.802 382.493 133.049 382.291 133.365C382.096 133.68 381.983 134.044 381.951 134.457ZM393.95 138H392.882V134.457C392.882 133.785 392.777 133.296 392.567 132.988C392.364 132.673 392.053 132.515 391.632 132.515C391.341 132.515 391.05 132.588 390.758 132.734C390.475 132.879 390.22 133.077 389.994 133.328C389.776 133.571 389.618 133.854 389.521 134.178V138H388.453V131.666H389.424V133.025C389.594 132.725 389.812 132.467 390.079 132.248C390.346 132.03 390.649 131.86 390.989 131.739C391.329 131.617 391.685 131.556 392.057 131.556C392.421 131.556 392.724 131.625 392.967 131.763C393.218 131.892 393.412 132.078 393.549 132.321C393.695 132.556 393.796 132.835 393.853 133.158C393.918 133.482 393.95 133.834 393.95 134.214V138ZM398.828 137.684C398.739 137.725 398.617 137.778 398.463 137.842C398.31 137.907 398.132 137.964 397.93 138.012C397.727 138.061 397.513 138.085 397.286 138.085C397.028 138.085 396.789 138.04 396.57 137.951C396.352 137.854 396.178 137.709 396.049 137.515C395.919 137.312 395.855 137.062 395.855 136.762V132.503H394.993V131.666H395.855V129.554H396.922V131.666H398.342V132.503H396.922V136.435C396.939 136.661 397.015 136.831 397.153 136.944C397.29 137.049 397.452 137.102 397.638 137.102C397.849 137.102 398.043 137.066 398.221 136.993C398.399 136.92 398.516 136.867 398.573 136.835L398.828 137.684ZM234.449 148.845C234.449 148.246 234.57 147.7 234.813 147.207C235.064 146.705 235.404 146.305 235.832 146.005C236.269 145.706 236.767 145.556 237.325 145.556C237.835 145.556 238.292 145.69 238.696 145.957C239.101 146.224 239.416 146.547 239.643 146.928V143.142H240.71V150.787C240.71 150.916 240.735 151.013 240.783 151.078C240.84 151.134 240.929 151.167 241.05 151.175V152C240.848 152.032 240.69 152.049 240.577 152.049C240.367 152.049 240.181 151.976 240.019 151.83C239.865 151.684 239.788 151.523 239.788 151.345V150.811C239.537 151.215 239.202 151.535 238.781 151.769C238.36 152.004 237.924 152.121 237.471 152.121C237.034 152.121 236.629 152.036 236.257 151.867C235.893 151.689 235.573 151.446 235.298 151.138C235.031 150.831 234.821 150.483 234.667 150.095C234.522 149.698 234.449 149.282 234.449 148.845ZM239.643 149.779V147.959C239.546 147.684 239.388 147.437 239.169 147.219C238.951 146.992 238.704 146.814 238.429 146.685C238.162 146.547 237.895 146.479 237.628 146.479C237.313 146.479 237.026 146.547 236.767 146.685C236.516 146.814 236.297 146.992 236.111 147.219C235.933 147.437 235.796 147.688 235.699 147.971C235.602 148.254 235.553 148.55 235.553 148.857C235.553 149.173 235.606 149.472 235.711 149.755C235.824 150.038 235.978 150.289 236.172 150.507C236.374 150.726 236.605 150.896 236.864 151.017C237.131 151.138 237.418 151.199 237.725 151.199C237.919 151.199 238.118 151.163 238.32 151.09C238.53 151.017 238.728 150.916 238.915 150.787C239.101 150.657 239.258 150.507 239.388 150.338C239.517 150.16 239.602 149.974 239.643 149.779ZM245.26 152.121C244.783 152.121 244.35 152.036 243.961 151.867C243.573 151.689 243.237 151.45 242.954 151.151C242.671 150.843 242.453 150.491 242.299 150.095C242.145 149.698 242.068 149.282 242.068 148.845C242.068 148.4 242.145 147.979 242.299 147.583C242.453 147.187 242.671 146.839 242.954 146.539C243.237 146.232 243.573 145.993 243.961 145.823C244.358 145.645 244.795 145.556 245.272 145.556C245.741 145.556 246.17 145.645 246.558 145.823C246.947 145.993 247.282 146.232 247.565 146.539C247.857 146.839 248.079 147.187 248.233 147.583C248.387 147.979 248.463 148.4 248.463 148.845C248.463 149.282 248.387 149.698 248.233 150.095C248.079 150.491 247.861 150.843 247.578 151.151C247.294 151.45 246.955 151.689 246.558 151.867C246.17 152.036 245.737 152.121 245.26 152.121ZM243.161 148.857C243.161 149.294 243.254 149.69 243.44 150.046C243.634 150.402 243.889 150.685 244.204 150.896C244.52 151.098 244.872 151.199 245.26 151.199C245.648 151.199 246 151.094 246.316 150.884C246.639 150.673 246.894 150.39 247.08 150.034C247.274 149.67 247.371 149.27 247.371 148.833C247.371 148.396 247.274 148 247.08 147.644C246.894 147.288 246.639 147.005 246.316 146.794C246 146.584 245.648 146.479 245.26 146.479C244.872 146.479 244.52 146.588 244.204 146.806C243.889 147.017 243.634 147.3 243.44 147.656C243.254 148.012 243.161 148.412 243.161 148.857ZM252.56 152.121C252.083 152.121 251.646 152.036 251.25 151.867C250.862 151.689 250.522 151.446 250.231 151.138C249.947 150.831 249.725 150.479 249.563 150.083C249.409 149.686 249.333 149.266 249.333 148.821C249.333 148.222 249.466 147.676 249.733 147.183C250 146.689 250.376 146.297 250.862 146.005C251.347 145.706 251.909 145.556 252.548 145.556C253.171 145.556 253.713 145.698 254.174 145.981C254.644 146.256 254.991 146.628 255.218 147.098L254.174 147.425C254.013 147.126 253.786 146.895 253.495 146.734C253.204 146.564 252.88 146.479 252.524 146.479C252.136 146.479 251.78 146.58 251.456 146.782C251.141 146.984 250.89 147.263 250.704 147.619C250.518 147.967 250.425 148.368 250.425 148.821C250.425 149.266 250.518 149.67 250.704 150.034C250.898 150.39 251.153 150.673 251.468 150.884C251.792 151.094 252.148 151.199 252.536 151.199C252.787 151.199 253.026 151.155 253.252 151.066C253.487 150.977 253.689 150.859 253.859 150.714C254.037 150.56 254.158 150.394 254.223 150.216L255.266 150.532C255.137 150.839 254.939 151.114 254.672 151.357C254.413 151.591 254.102 151.778 253.738 151.915C253.382 152.053 252.989 152.121 252.56 152.121ZM256.416 149.464V145.666H257.484V149.258C257.484 149.905 257.597 150.39 257.823 150.714C258.05 151.037 258.386 151.199 258.831 151.199C259.122 151.199 259.401 151.138 259.668 151.017C259.943 150.888 260.19 150.706 260.408 150.471C260.627 150.236 260.796 149.957 260.918 149.634V145.666H261.986V150.787C261.986 150.916 262.01 151.013 262.058 151.078C262.115 151.134 262.204 151.167 262.325 151.175V152C262.204 152.016 262.107 152.024 262.034 152.024C261.969 152.032 261.905 152.036 261.84 152.036C261.638 152.036 261.464 151.976 261.318 151.854C261.173 151.725 261.096 151.567 261.088 151.381L261.063 150.641C260.788 151.11 260.416 151.474 259.947 151.733C259.486 151.992 258.98 152.121 258.43 152.121C257.767 152.121 257.265 151.899 256.925 151.454C256.586 151.001 256.416 150.338 256.416 149.464ZM273.314 152H272.246V148.457C272.246 147.793 272.137 147.304 271.919 146.988C271.709 146.673 271.393 146.515 270.972 146.515C270.544 146.515 270.155 146.673 269.807 146.988C269.46 147.296 269.213 147.696 269.067 148.19V152H267.999V148.457C267.999 147.785 267.894 147.296 267.684 146.988C267.474 146.673 267.158 146.515 266.737 146.515C266.317 146.515 265.928 146.669 265.572 146.976C265.225 147.276 264.978 147.676 264.832 148.178V152H263.764V145.666H264.735V147.025C264.994 146.556 265.33 146.196 265.742 145.945C266.155 145.686 266.62 145.556 267.138 145.556C267.664 145.556 268.084 145.702 268.4 145.993C268.715 146.276 268.909 146.645 268.982 147.098C269.265 146.596 269.609 146.216 270.014 145.957C270.418 145.69 270.879 145.556 271.397 145.556C271.761 145.556 272.064 145.625 272.307 145.763C272.558 145.892 272.756 146.078 272.902 146.321C273.047 146.556 273.153 146.835 273.217 147.158C273.282 147.482 273.314 147.834 273.314 148.214V152ZM277.778 152.121C277.301 152.121 276.864 152.036 276.467 151.867C276.079 151.689 275.739 151.45 275.448 151.151C275.165 150.843 274.942 150.491 274.781 150.095C274.627 149.698 274.55 149.278 274.55 148.833C274.55 148.234 274.688 147.688 274.963 147.195C275.238 146.701 275.618 146.305 276.103 146.005C276.597 145.706 277.159 145.556 277.79 145.556C278.429 145.556 278.983 145.71 279.452 146.018C279.93 146.317 280.298 146.713 280.557 147.207C280.824 147.692 280.957 148.218 280.957 148.784C280.957 148.865 280.953 148.946 280.945 149.027C280.945 149.1 280.941 149.156 280.933 149.197H275.679C275.711 149.609 275.824 149.978 276.018 150.301C276.221 150.617 276.479 150.867 276.795 151.053C277.11 151.231 277.45 151.32 277.814 151.32C278.203 151.32 278.567 151.223 278.906 151.029C279.254 150.835 279.493 150.58 279.622 150.265L280.545 150.52C280.407 150.827 280.201 151.102 279.926 151.345C279.659 151.587 279.339 151.778 278.967 151.915C278.603 152.053 278.207 152.121 277.778 152.121ZM275.642 148.457H279.962C279.93 148.044 279.812 147.68 279.61 147.365C279.408 147.049 279.149 146.802 278.834 146.624C278.518 146.446 278.17 146.357 277.79 146.357C277.418 146.357 277.074 146.446 276.759 146.624C276.443 146.802 276.184 147.049 275.982 147.365C275.788 147.68 275.674 148.044 275.642 148.457ZM287.641 152H286.573V148.457C286.573 147.785 286.468 147.296 286.258 146.988C286.056 146.673 285.744 146.515 285.323 146.515C285.032 146.515 284.741 146.588 284.45 146.734C284.167 146.879 283.912 147.077 283.685 147.328C283.467 147.571 283.309 147.854 283.212 148.178V152H282.144V145.666H283.115V147.025C283.285 146.725 283.503 146.467 283.77 146.248C284.037 146.03 284.34 145.86 284.68 145.739C285.02 145.617 285.376 145.556 285.748 145.556C286.112 145.556 286.416 145.625 286.658 145.763C286.909 145.892 287.103 146.078 287.241 146.321C287.386 146.556 287.487 146.835 287.544 147.158C287.609 147.482 287.641 147.834 287.641 148.214V152ZM292.519 151.684C292.43 151.725 292.308 151.778 292.155 151.842C292.001 151.907 291.823 151.964 291.621 152.012C291.419 152.061 291.204 152.085 290.978 152.085C290.719 152.085 290.48 152.04 290.262 151.951C290.043 151.854 289.869 151.709 289.74 151.515C289.611 151.312 289.546 151.062 289.546 150.762V146.503H288.684V145.666H289.546V143.554H290.614V145.666H292.033V146.503H290.614V150.435C290.63 150.661 290.707 150.831 290.844 150.944C290.982 151.049 291.144 151.102 291.33 151.102C291.54 151.102 291.734 151.066 291.912 150.993C292.09 150.92 292.207 150.867 292.264 150.835L292.519 151.684ZM296.918 152V146.503H296.056V145.666H296.918V145.532C296.918 145.014 296.994 144.57 297.148 144.197C297.31 143.817 297.536 143.526 297.828 143.324C298.119 143.121 298.463 143.02 298.859 143.02C299.11 143.02 299.357 143.057 299.599 143.13C299.842 143.194 300.06 143.287 300.255 143.409L299.988 144.197C299.874 144.117 299.733 144.052 299.563 144.003C299.401 143.955 299.239 143.93 299.077 143.93C298.73 143.93 298.459 144.068 298.264 144.343C298.078 144.61 297.985 144.994 297.985 145.496V145.666H299.672V146.503H297.985V152H296.918ZM303.362 152.121C302.884 152.121 302.452 152.036 302.063 151.867C301.675 151.689 301.339 151.45 301.056 151.151C300.773 150.843 300.555 150.491 300.401 150.095C300.247 149.698 300.17 149.282 300.17 148.845C300.17 148.4 300.247 147.979 300.401 147.583C300.555 147.187 300.773 146.839 301.056 146.539C301.339 146.232 301.675 145.993 302.063 145.823C302.46 145.645 302.897 145.556 303.374 145.556C303.843 145.556 304.272 145.645 304.66 145.823C305.048 145.993 305.384 146.232 305.667 146.539C305.959 146.839 306.181 147.187 306.335 147.583C306.488 147.979 306.565 148.4 306.565 148.845C306.565 149.282 306.488 149.698 306.335 150.095C306.181 150.491 305.963 150.843 305.679 151.151C305.396 151.45 305.056 151.689 304.66 151.867C304.272 152.036 303.839 152.121 303.362 152.121ZM301.262 148.857C301.262 149.294 301.355 149.69 301.541 150.046C301.736 150.402 301.99 150.685 302.306 150.896C302.621 151.098 302.973 151.199 303.362 151.199C303.75 151.199 304.102 151.094 304.417 150.884C304.741 150.673 304.996 150.39 305.182 150.034C305.376 149.67 305.473 149.27 305.473 148.833C305.473 148.396 305.376 148 305.182 147.644C304.996 147.288 304.741 147.005 304.417 146.794C304.102 146.584 303.75 146.479 303.362 146.479C302.973 146.479 302.621 146.588 302.306 146.806C301.99 147.017 301.736 147.3 301.541 147.656C301.355 148.012 301.262 148.412 301.262 148.857ZM311.208 146.6C310.674 146.608 310.201 146.746 309.789 147.013C309.384 147.272 309.097 147.632 308.927 148.093V152H307.859V145.666H308.854V147.134C309.073 146.697 309.36 146.345 309.716 146.078C310.08 145.803 310.46 145.65 310.856 145.617C310.937 145.617 311.006 145.617 311.063 145.617C311.119 145.617 311.168 145.621 311.208 145.629V146.6ZM324.602 152H323.534V148.457C323.534 147.793 323.425 147.304 323.207 146.988C322.996 146.673 322.681 146.515 322.26 146.515C321.832 146.515 321.443 146.673 321.095 146.988C320.748 147.296 320.501 147.696 320.355 148.19V152H319.287V148.457C319.287 147.785 319.182 147.296 318.972 146.988C318.761 146.673 318.446 146.515 318.025 146.515C317.605 146.515 317.216 146.669 316.86 146.976C316.513 147.276 316.266 147.676 316.12 148.178V152H315.052V145.666H316.023V147.025C316.282 146.556 316.618 146.196 317.03 145.945C317.443 145.686 317.908 145.556 318.426 145.556C318.952 145.556 319.372 145.702 319.688 145.993C320.003 146.276 320.197 146.645 320.27 147.098C320.553 146.596 320.897 146.216 321.302 145.957C321.706 145.69 322.167 145.556 322.685 145.556C323.049 145.556 323.352 145.625 323.595 145.763C323.846 145.892 324.044 146.078 324.19 146.321C324.335 146.556 324.441 146.835 324.505 147.158C324.57 147.482 324.602 147.834 324.602 148.214V152ZM326.435 153.723C326.541 153.731 326.646 153.739 326.751 153.747C326.856 153.764 326.937 153.772 326.994 153.772C327.123 153.772 327.236 153.727 327.333 153.638C327.43 153.549 327.536 153.375 327.649 153.116C327.77 152.866 327.924 152.493 328.11 152L325.428 145.666H326.557L328.692 150.92L330.622 145.666H331.678L328.595 153.662C328.523 153.849 328.413 154.022 328.268 154.184C328.13 154.354 327.952 154.488 327.734 154.585C327.515 154.682 327.252 154.73 326.945 154.73C326.872 154.73 326.795 154.726 326.714 154.718C326.642 154.71 326.549 154.694 326.435 154.67V153.723ZM338.746 152.121C338.253 152.121 337.804 152 337.399 151.757C336.995 151.515 336.675 151.199 336.441 150.811V152H335.494V143.142H336.562V146.928C336.829 146.515 337.156 146.183 337.545 145.933C337.933 145.682 338.386 145.556 338.904 145.556C339.341 145.556 339.733 145.65 340.081 145.836C340.429 146.014 340.724 146.26 340.967 146.576C341.218 146.883 341.408 147.235 341.537 147.632C341.675 148.02 341.743 148.428 341.743 148.857C341.743 149.302 341.667 149.723 341.513 150.119C341.367 150.507 341.157 150.855 340.882 151.163C340.607 151.462 340.287 151.697 339.923 151.867C339.567 152.036 339.175 152.121 338.746 152.121ZM338.479 151.199C338.795 151.199 339.086 151.134 339.353 151.005C339.62 150.876 339.85 150.702 340.045 150.483C340.239 150.265 340.388 150.014 340.494 149.731C340.599 149.448 340.651 149.156 340.651 148.857C340.651 148.445 340.562 148.056 340.384 147.692C340.214 147.328 339.972 147.037 339.656 146.818C339.349 146.592 338.989 146.479 338.576 146.479C338.277 146.479 337.998 146.547 337.739 146.685C337.48 146.823 337.249 147.005 337.047 147.231C336.853 147.449 336.691 147.692 336.562 147.959V149.791C336.602 149.994 336.687 150.18 336.817 150.35C336.946 150.52 337.104 150.669 337.29 150.799C337.476 150.92 337.67 151.017 337.872 151.09C338.083 151.163 338.285 151.199 338.479 151.199ZM342.994 149.464V145.666H344.062V149.258C344.062 149.905 344.175 150.39 344.401 150.714C344.628 151.037 344.964 151.199 345.409 151.199C345.7 151.199 345.979 151.138 346.246 151.017C346.521 150.888 346.768 150.706 346.986 150.471C347.205 150.236 347.374 149.957 347.496 149.634V145.666H348.564V150.787C348.564 150.916 348.588 151.013 348.636 151.078C348.693 151.134 348.782 151.167 348.903 151.175V152C348.782 152.016 348.685 152.024 348.612 152.024C348.547 152.032 348.483 152.036 348.418 152.036C348.216 152.036 348.042 151.976 347.896 151.854C347.751 151.725 347.674 151.567 347.666 151.381L347.641 150.641C347.366 151.11 346.994 151.474 346.525 151.733C346.064 151.992 345.558 152.121 345.008 152.121C344.345 152.121 343.843 151.899 343.503 151.454C343.164 151.001 342.994 150.338 342.994 149.464ZM352.515 152.121C351.989 152.121 351.495 152.036 351.034 151.867C350.573 151.689 350.177 151.426 349.845 151.078L350.257 150.325C350.622 150.665 350.986 150.908 351.35 151.053C351.714 151.199 352.086 151.272 352.466 151.272C352.903 151.272 353.259 151.191 353.534 151.029C353.809 150.859 353.946 150.613 353.946 150.289C353.946 150.054 353.874 149.88 353.728 149.767C353.59 149.654 353.392 149.561 353.133 149.488C352.875 149.407 352.567 149.318 352.211 149.221C351.774 149.092 351.406 148.954 351.107 148.809C350.808 148.663 350.581 148.481 350.427 148.263C350.274 148.044 350.197 147.769 350.197 147.437C350.197 147.033 350.302 146.693 350.512 146.418C350.723 146.135 351.01 145.921 351.374 145.775C351.746 145.629 352.167 145.556 352.636 145.556C353.105 145.556 353.53 145.629 353.91 145.775C354.29 145.921 354.618 146.135 354.893 146.418L354.408 147.158C354.157 146.899 353.882 146.709 353.582 146.588C353.283 146.458 352.947 146.394 352.575 146.394C352.357 146.394 352.142 146.422 351.932 146.479C351.722 146.527 351.548 146.62 351.41 146.758C351.273 146.887 351.204 147.073 351.204 147.316C351.204 147.518 351.257 147.68 351.362 147.801C351.475 147.915 351.637 148.012 351.847 148.093C352.066 148.174 352.328 148.263 352.636 148.36C353.113 148.497 353.526 148.635 353.874 148.772C354.23 148.91 354.505 149.088 354.699 149.306C354.893 149.525 354.99 149.828 354.99 150.216C354.99 150.815 354.763 151.284 354.31 151.624C353.857 151.956 353.259 152.121 352.515 152.121ZM356.268 152V145.666H357.335V152H356.268ZM356.268 144.477V143.142H357.335V144.477H356.268ZM364.561 152H363.493V148.457C363.493 147.785 363.388 147.296 363.178 146.988C362.976 146.673 362.664 146.515 362.243 146.515C361.952 146.515 361.661 146.588 361.37 146.734C361.087 146.879 360.832 147.077 360.605 147.328C360.387 147.571 360.229 147.854 360.132 148.178V152H359.064V145.666H360.035V147.025C360.205 146.725 360.423 146.467 360.69 146.248C360.957 146.03 361.261 145.86 361.6 145.739C361.94 145.617 362.296 145.556 362.668 145.556C363.032 145.556 363.336 145.625 363.578 145.763C363.829 145.892 364.023 146.078 364.161 146.321C364.306 146.556 364.407 146.835 364.464 147.158C364.529 147.482 364.561 147.834 364.561 148.214V152ZM369.025 152.121C368.548 152.121 368.111 152.036 367.714 151.867C367.326 151.689 366.986 151.45 366.695 151.151C366.412 150.843 366.189 150.491 366.028 150.095C365.874 149.698 365.797 149.278 365.797 148.833C365.797 148.234 365.935 147.688 366.21 147.195C366.485 146.701 366.865 146.305 367.35 146.005C367.844 145.706 368.406 145.556 369.037 145.556C369.676 145.556 370.23 145.71 370.699 146.018C371.177 146.317 371.545 146.713 371.804 147.207C372.071 147.692 372.204 148.218 372.204 148.784C372.204 148.865 372.2 148.946 372.192 149.027C372.192 149.1 372.188 149.156 372.18 149.197H366.926C366.958 149.609 367.071 149.978 367.265 150.301C367.468 150.617 367.726 150.867 368.042 151.053C368.357 151.231 368.697 151.32 369.061 151.32C369.45 151.32 369.814 151.223 370.153 151.029C370.501 150.835 370.74 150.58 370.869 150.265L371.792 150.52C371.654 150.827 371.448 151.102 371.173 151.345C370.906 151.587 370.586 151.778 370.214 151.915C369.85 152.053 369.454 152.121 369.025 152.121ZM366.889 148.457H371.209C371.177 148.044 371.059 147.68 370.857 147.365C370.655 147.049 370.396 146.802 370.081 146.624C369.765 146.446 369.417 146.357 369.037 146.357C368.665 146.357 368.321 146.446 368.006 146.624C367.69 146.802 367.431 147.049 367.229 147.365C367.035 147.68 366.922 148.044 366.889 148.457ZM375.563 152.121C375.037 152.121 374.544 152.036 374.083 151.867C373.622 151.689 373.225 151.426 372.894 151.078L373.306 150.325C373.67 150.665 374.034 150.908 374.398 151.053C374.762 151.199 375.135 151.272 375.515 151.272C375.952 151.272 376.308 151.191 376.583 151.029C376.858 150.859 376.995 150.613 376.995 150.289C376.995 150.054 376.922 149.88 376.777 149.767C376.639 149.654 376.441 149.561 376.182 149.488C375.923 149.407 375.616 149.318 375.26 149.221C374.823 149.092 374.455 148.954 374.156 148.809C373.856 148.663 373.63 148.481 373.476 148.263C373.322 148.044 373.246 147.769 373.246 147.437C373.246 147.033 373.351 146.693 373.561 146.418C373.771 146.135 374.059 145.921 374.423 145.775C374.795 145.629 375.215 145.556 375.685 145.556C376.154 145.556 376.579 145.629 376.959 145.775C377.339 145.921 377.667 146.135 377.942 146.418L377.456 147.158C377.205 146.899 376.93 146.709 376.631 146.588C376.332 146.458 375.996 146.394 375.624 146.394C375.406 146.394 375.191 146.422 374.981 146.479C374.77 146.527 374.597 146.62 374.459 146.758C374.321 146.887 374.253 147.073 374.253 147.316C374.253 147.518 374.305 147.68 374.41 147.801C374.524 147.915 374.686 148.012 374.896 148.093C375.114 148.174 375.377 148.263 375.685 148.36C376.162 148.497 376.574 148.635 376.922 148.772C377.278 148.91 377.553 149.088 377.748 149.306C377.942 149.525 378.039 149.828 378.039 150.216C378.039 150.815 377.812 151.284 377.359 151.624C376.906 151.956 376.308 152.121 375.563 152.121ZM381.488 152.121C380.963 152.121 380.469 152.036 380.008 151.867C379.547 151.689 379.15 151.426 378.819 151.078L379.231 150.325C379.595 150.665 379.959 150.908 380.323 151.053C380.688 151.199 381.06 151.272 381.44 151.272C381.877 151.272 382.233 151.191 382.508 151.029C382.783 150.859 382.92 150.613 382.92 150.289C382.92 150.054 382.847 149.88 382.702 149.767C382.564 149.654 382.366 149.561 382.107 149.488C381.848 149.407 381.541 149.318 381.185 149.221C380.748 149.092 380.38 148.954 380.081 148.809C379.781 148.663 379.555 148.481 379.401 148.263C379.248 148.044 379.171 147.769 379.171 147.437C379.171 147.033 379.276 146.693 379.486 146.418C379.697 146.135 379.984 145.921 380.348 145.775C380.72 145.629 381.141 145.556 381.61 145.556C382.079 145.556 382.504 145.629 382.884 145.775C383.264 145.921 383.592 146.135 383.867 146.418L383.381 147.158C383.131 146.899 382.856 146.709 382.556 146.588C382.257 146.458 381.921 146.394 381.549 146.394C381.331 146.394 381.116 146.422 380.906 146.479C380.696 146.527 380.522 146.62 380.384 146.758C380.247 146.887 380.178 147.073 380.178 147.316C380.178 147.518 380.23 147.68 380.336 147.801C380.449 147.915 380.611 148.012 380.821 148.093C381.039 148.174 381.302 148.263 381.61 148.36C382.087 148.497 382.5 148.635 382.847 148.772C383.203 148.91 383.478 149.088 383.673 149.306C383.867 149.525 383.964 149.828 383.964 150.216C383.964 150.815 383.737 151.284 383.284 151.624C382.831 151.956 382.233 152.121 381.488 152.121ZM388.311 152V145.666H389.379V152H388.311ZM388.311 144.477V143.142H389.379V144.477H388.311ZM390.695 148.845C390.695 148.246 390.816 147.7 391.059 147.207C391.31 146.705 391.649 146.305 392.078 146.005C392.515 145.706 393.012 145.556 393.571 145.556C394.08 145.556 394.537 145.69 394.942 145.957C395.346 146.224 395.662 146.547 395.888 146.928V143.142H396.956V150.787C396.956 150.916 396.981 151.013 397.029 151.078C397.086 151.134 397.175 151.167 397.296 151.175V152C397.094 152.032 396.936 152.049 396.823 152.049C396.612 152.049 396.426 151.976 396.265 151.83C396.111 151.684 396.034 151.523 396.034 151.345V150.811C395.783 151.215 395.447 151.535 395.027 151.769C394.606 152.004 394.169 152.121 393.716 152.121C393.279 152.121 392.875 152.036 392.503 151.867C392.139 151.689 391.819 151.446 391.544 151.138C391.277 150.831 391.067 150.483 390.913 150.095C390.768 149.698 390.695 149.282 390.695 148.845ZM395.888 149.779V147.959C395.791 147.684 395.634 147.437 395.415 147.219C395.197 146.992 394.95 146.814 394.675 146.685C394.408 146.547 394.141 146.479 393.874 146.479C393.559 146.479 393.271 146.547 393.012 146.685C392.762 146.814 392.543 146.992 392.357 147.219C392.179 147.437 392.042 147.688 391.945 147.971C391.848 148.254 391.799 148.55 391.799 148.857C391.799 149.173 391.852 149.472 391.957 149.755C392.07 150.038 392.224 150.289 392.418 150.507C392.62 150.726 392.851 150.896 393.11 151.017C393.377 151.138 393.664 151.199 393.971 151.199C394.165 151.199 394.363 151.163 394.566 151.09C394.776 151.017 394.974 150.916 395.16 150.787C395.346 150.657 395.504 150.507 395.634 150.338C395.763 150.16 395.848 149.974 395.888 149.779ZM401.542 152.121C401.065 152.121 400.628 152.036 400.231 151.867C399.843 151.689 399.503 151.45 399.212 151.151C398.929 150.843 398.707 150.491 398.545 150.095C398.391 149.698 398.314 149.278 398.314 148.833C398.314 148.234 398.452 147.688 398.727 147.195C399.002 146.701 399.382 146.305 399.867 146.005C400.361 145.706 400.923 145.556 401.554 145.556C402.193 145.556 402.747 145.71 403.217 146.018C403.694 146.317 404.062 146.713 404.321 147.207C404.588 147.692 404.721 148.218 404.721 148.784C404.721 148.865 404.717 148.946 404.709 149.027C404.709 149.1 404.705 149.156 404.697 149.197H399.443C399.475 149.609 399.588 149.978 399.782 150.301C399.985 150.617 400.244 150.867 400.559 151.053C400.875 151.231 401.214 151.32 401.578 151.32C401.967 151.32 402.331 151.223 402.671 151.029C403.018 150.835 403.257 150.58 403.386 150.265L404.309 150.52C404.171 150.827 403.965 151.102 403.69 151.345C403.423 151.587 403.103 151.778 402.731 151.915C402.367 152.053 401.971 152.121 401.542 152.121ZM399.406 148.457H403.726C403.694 148.044 403.577 147.68 403.374 147.365C403.172 147.049 402.913 146.802 402.598 146.624C402.282 146.446 401.934 146.357 401.554 146.357C401.182 146.357 400.838 146.446 400.523 146.624C400.207 146.802 399.948 147.049 399.746 147.365C399.552 147.68 399.439 148.044 399.406 148.457ZM405.411 150.168C405.411 149.763 405.524 149.415 405.751 149.124C405.985 148.825 406.305 148.594 406.709 148.432C407.114 148.271 407.583 148.19 408.117 148.19C408.4 148.19 408.699 148.214 409.015 148.263C409.33 148.303 409.609 148.368 409.852 148.457V147.996C409.852 147.51 409.706 147.13 409.415 146.855C409.124 146.572 408.711 146.43 408.177 146.43C407.83 146.43 407.494 146.495 407.17 146.624C406.855 146.746 406.519 146.924 406.163 147.158L405.775 146.406C406.187 146.123 406.6 145.912 407.013 145.775C407.425 145.629 407.854 145.556 408.299 145.556C409.108 145.556 409.747 145.783 410.216 146.236C410.685 146.681 410.92 147.304 410.92 148.105V150.787C410.92 150.916 410.944 151.013 410.993 151.078C411.049 151.134 411.138 151.167 411.26 151.175V152C411.155 152.016 411.061 152.028 410.981 152.036C410.908 152.044 410.847 152.049 410.799 152.049C410.548 152.049 410.358 151.98 410.228 151.842C410.107 151.705 410.038 151.559 410.022 151.405L409.998 151.005C409.723 151.361 409.363 151.636 408.918 151.83C408.473 152.024 408.032 152.121 407.595 152.121C407.174 152.121 406.798 152.036 406.466 151.867C406.135 151.689 405.876 151.454 405.69 151.163C405.504 150.863 405.411 150.532 405.411 150.168ZM409.537 150.617C409.634 150.503 409.71 150.39 409.767 150.277C409.824 150.156 409.852 150.054 409.852 149.974V149.185C409.601 149.088 409.338 149.015 409.063 148.966C408.788 148.91 408.517 148.881 408.25 148.881C407.708 148.881 407.267 148.991 406.928 149.209C406.596 149.419 406.43 149.711 406.43 150.083C406.43 150.285 406.483 150.483 406.588 150.677C406.701 150.863 406.863 151.017 407.073 151.138C407.292 151.26 407.559 151.32 407.874 151.32C408.206 151.32 408.521 151.256 408.821 151.126C409.12 150.989 409.359 150.819 409.537 150.617ZM412.542 152V150.641H413.44V152H412.542Z" fill="white"/>
<path d="M252.192 328.177V322.842H254.401C254.632 322.842 254.842 322.89 255.032 322.985C255.228 323.08 255.395 323.211 255.536 323.376C255.676 323.536 255.786 323.716 255.866 323.917C255.946 324.112 255.986 324.312 255.986 324.518C255.986 324.808 255.921 325.084 255.791 325.344C255.666 325.6 255.488 325.808 255.258 325.968C255.027 326.128 254.757 326.208 254.446 326.208H252.718V328.177H252.192ZM252.718 325.743H254.424C254.634 325.743 254.817 325.685 254.972 325.57C255.127 325.454 255.248 325.304 255.333 325.119C255.418 324.934 255.46 324.733 255.46 324.518C255.46 324.297 255.41 324.095 255.31 323.909C255.21 323.724 255.077 323.579 254.912 323.474C254.752 323.363 254.574 323.308 254.379 323.308H252.718V325.743ZM258.355 328.252C258.075 328.252 257.814 328.199 257.574 328.094C257.339 327.984 257.133 327.836 256.958 327.651C256.788 327.461 256.655 327.245 256.56 327.005C256.465 326.759 256.417 326.501 256.417 326.231C256.417 325.95 256.465 325.69 256.56 325.449C256.655 325.204 256.79 324.989 256.965 324.803C257.141 324.613 257.346 324.465 257.581 324.36C257.822 324.25 258.082 324.195 258.363 324.195C258.643 324.195 258.901 324.25 259.137 324.36C259.372 324.465 259.577 324.613 259.753 324.803C259.928 324.989 260.063 325.204 260.158 325.449C260.254 325.69 260.301 325.95 260.301 326.231C260.301 326.501 260.254 326.759 260.158 327.005C260.063 327.245 259.928 327.461 259.753 327.651C259.582 327.836 259.377 327.984 259.137 328.094C258.901 328.199 258.641 328.252 258.355 328.252ZM256.935 326.238C256.935 326.529 256.998 326.794 257.123 327.035C257.253 327.27 257.426 327.458 257.642 327.598C257.857 327.733 258.095 327.801 258.355 327.801C258.616 327.801 258.854 327.731 259.069 327.591C259.284 327.45 259.457 327.26 259.587 327.02C259.718 326.774 259.783 326.509 259.783 326.223C259.783 325.933 259.718 325.667 259.587 325.427C259.457 325.187 259.284 324.996 259.069 324.856C258.854 324.716 258.616 324.646 258.355 324.646C258.095 324.646 257.857 324.718 257.642 324.863C257.431 325.009 257.261 325.202 257.131 325.442C257 325.677 256.935 325.943 256.935 326.238ZM265.952 324.262H266.456L264.773 328.177H264.329L263.51 326.231L262.699 328.177H262.256L260.573 324.262H261.069L262.496 327.651L263.217 325.885L262.556 324.27H263.015L263.51 325.54L264.014 324.27H264.465L263.811 325.885L264.532 327.651L265.952 324.262ZM268.694 328.252C268.413 328.252 268.153 328.199 267.912 328.094C267.672 327.984 267.464 327.836 267.289 327.651C267.113 327.461 266.976 327.243 266.876 326.997C266.78 326.752 266.733 326.489 266.733 326.208C266.733 325.843 266.815 325.507 266.981 325.202C267.151 324.896 267.384 324.653 267.679 324.473C267.975 324.287 268.311 324.195 268.686 324.195C269.072 324.195 269.408 324.287 269.693 324.473C269.984 324.658 270.211 324.904 270.377 325.209C270.542 325.51 270.625 325.84 270.625 326.201C270.625 326.241 270.625 326.281 270.625 326.321C270.625 326.356 270.622 326.384 270.617 326.404H267.266C267.291 326.684 267.369 326.935 267.499 327.155C267.634 327.37 267.807 327.543 268.018 327.673C268.233 327.799 268.466 327.861 268.716 327.861C268.972 327.861 269.212 327.796 269.438 327.666C269.668 327.536 269.828 327.365 269.918 327.155L270.362 327.275C270.282 327.461 270.159 327.628 269.994 327.779C269.828 327.929 269.633 328.047 269.408 328.132C269.187 328.212 268.949 328.252 268.694 328.252ZM267.251 326.036H270.144C270.124 325.75 270.046 325.5 269.911 325.284C269.781 325.069 269.608 324.901 269.392 324.781C269.182 324.656 268.949 324.593 268.694 324.593C268.438 324.593 268.205 324.656 267.995 324.781C267.785 324.901 267.612 325.071 267.477 325.292C267.346 325.507 267.271 325.755 267.251 326.036ZM273.366 324.713C273.026 324.723 272.725 324.818 272.465 324.999C272.209 325.179 272.029 325.427 271.924 325.743V328.177H271.413V324.262H271.894V325.202C272.029 324.926 272.207 324.703 272.427 324.533C272.653 324.363 272.89 324.267 273.141 324.247C273.191 324.242 273.234 324.24 273.269 324.24C273.309 324.24 273.341 324.242 273.366 324.247V324.713ZM275.62 328.252C275.339 328.252 275.079 328.199 274.839 328.094C274.598 327.984 274.39 327.836 274.215 327.651C274.04 327.461 273.902 327.243 273.802 326.997C273.707 326.752 273.659 326.489 273.659 326.208C273.659 325.843 273.742 325.507 273.907 325.202C274.077 324.896 274.31 324.653 274.606 324.473C274.901 324.287 275.237 324.195 275.612 324.195C275.998 324.195 276.334 324.287 276.619 324.473C276.91 324.658 277.138 324.904 277.303 325.209C277.468 325.51 277.551 325.84 277.551 326.201C277.551 326.241 277.551 326.281 277.551 326.321C277.551 326.356 277.548 326.384 277.543 326.404H274.192C274.217 326.684 274.295 326.935 274.425 327.155C274.561 327.37 274.733 327.543 274.944 327.673C275.159 327.799 275.392 327.861 275.642 327.861C275.898 327.861 276.138 327.796 276.364 327.666C276.594 327.536 276.754 327.365 276.845 327.155L277.288 327.275C277.208 327.461 277.085 327.628 276.92 327.779C276.754 327.929 276.559 328.047 276.334 328.132C276.113 328.212 275.875 328.252 275.62 328.252ZM274.177 326.036H277.07C277.05 325.75 276.972 325.5 276.837 325.284C276.707 325.069 276.534 324.901 276.319 324.781C276.108 324.656 275.875 324.593 275.62 324.593C275.364 324.593 275.132 324.656 274.921 324.781C274.711 324.901 274.538 325.071 274.403 325.292C274.273 325.507 274.197 325.755 274.177 326.036ZM278.076 326.231C278.076 325.86 278.151 325.522 278.301 325.217C278.457 324.906 278.67 324.658 278.94 324.473C279.211 324.287 279.519 324.195 279.864 324.195C280.19 324.195 280.48 324.282 280.736 324.458C280.996 324.628 281.199 324.836 281.344 325.081V322.692H281.855V327.561C281.855 327.631 281.87 327.683 281.9 327.718C281.93 327.749 281.975 327.766 282.036 327.771V328.177C281.935 328.192 281.858 328.197 281.803 328.192C281.697 328.187 281.605 328.144 281.525 328.064C281.444 327.984 281.404 327.896 281.404 327.801V327.418C281.249 327.673 281.039 327.876 280.773 328.026C280.508 328.177 280.232 328.252 279.947 328.252C279.676 328.252 279.426 328.197 279.196 328.087C278.97 327.976 278.772 327.826 278.602 327.636C278.437 327.445 278.306 327.23 278.211 326.99C278.121 326.744 278.076 326.491 278.076 326.231ZM281.344 326.832V325.622C281.279 325.442 281.174 325.279 281.029 325.134C280.883 324.984 280.718 324.866 280.533 324.781C280.353 324.691 280.172 324.646 279.992 324.646C279.782 324.646 279.591 324.691 279.421 324.781C279.251 324.866 279.103 324.984 278.978 325.134C278.857 325.284 278.765 325.454 278.7 325.645C278.635 325.835 278.602 326.031 278.602 326.231C278.602 326.441 278.637 326.642 278.707 326.832C278.782 327.022 278.888 327.193 279.023 327.343C279.158 327.488 279.313 327.601 279.489 327.681C279.664 327.761 279.854 327.801 280.06 327.801C280.19 327.801 280.325 327.776 280.465 327.726C280.606 327.676 280.738 327.608 280.863 327.523C280.994 327.433 281.101 327.328 281.187 327.208C281.272 327.087 281.324 326.962 281.344 326.832ZM286.844 328.252C286.538 328.252 286.255 328.174 285.995 328.019C285.734 327.859 285.531 327.658 285.386 327.418V328.177H284.928V322.692H285.439V325.081C285.614 324.816 285.824 324.603 286.07 324.443C286.315 324.277 286.601 324.195 286.926 324.195C287.202 324.195 287.447 324.252 287.663 324.368C287.883 324.483 288.071 324.638 288.226 324.833C288.381 325.024 288.499 325.242 288.579 325.487C288.659 325.727 288.699 325.975 288.699 326.231C288.699 326.506 288.652 326.764 288.557 327.005C288.466 327.245 288.336 327.461 288.166 327.651C287.996 327.836 287.798 327.984 287.572 328.094C287.352 328.199 287.109 328.252 286.844 328.252ZM286.723 327.801C286.934 327.801 287.129 327.759 287.309 327.673C287.49 327.588 287.645 327.471 287.775 327.32C287.905 327.17 288.006 327.002 288.076 326.817C288.146 326.627 288.181 326.431 288.181 326.231C288.181 325.955 288.121 325.697 288.001 325.457C287.885 325.212 287.723 325.016 287.512 324.871C287.307 324.721 287.064 324.646 286.783 324.646C286.583 324.646 286.395 324.691 286.22 324.781C286.05 324.871 285.897 324.991 285.762 325.141C285.631 325.287 285.524 325.447 285.439 325.622V326.839C285.459 326.975 285.511 327.102 285.596 327.223C285.682 327.338 285.787 327.438 285.912 327.523C286.042 327.608 286.177 327.676 286.318 327.726C286.458 327.776 286.593 327.801 286.723 327.801ZM289.658 329.379C289.728 329.384 289.796 329.386 289.861 329.386C289.926 329.391 289.974 329.389 290.004 329.379C290.064 329.369 290.121 329.334 290.176 329.274C290.232 329.214 290.297 329.098 290.372 328.928C290.447 328.758 290.552 328.507 290.687 328.177L288.982 324.262H289.523L290.958 327.651L292.28 324.262H292.791L290.762 329.311C290.727 329.406 290.675 329.494 290.605 329.574C290.535 329.659 290.447 329.724 290.342 329.77C290.242 329.82 290.116 329.847 289.966 329.852C289.921 329.857 289.873 329.857 289.823 329.852C289.778 329.852 289.723 329.847 289.658 329.837V329.379Z" fill="white"/>
<g clip-path="url(#clip3_1436_7058)">
<rect width="1.85725" height="7.96238" rx="0.928625" transform="matrix(0.90298 -0.429683 -0.429683 -0.90298 301.061 329.024)" fill="#E6E6E6"/>
<mask id="mask1_1436_7058" style="mask-type:alpha" maskUnits="userSpaceOnUse" x="295" y="321" width="8" height="8">
<path d="M298.004 321.861C298.347 321.141 299.37 321.144 299.712 321.863L302.239 327.175C302.239 327.175 301.332 326.576 300.246 326.769C299.426 326.914 297.936 328.46 296.301 328.874C295.462 329.086 295.016 328.122 295.389 327.342C296.114 325.826 297.234 323.477 298.004 321.861Z" fill="#D9D9D9"/>
</mask>
<g mask="url(#mask1_1436_7058)">
<path d="M298.005 321.861C298.347 321.142 299.37 321.144 299.712 321.864L302.24 327.175C302.24 327.175 301.332 326.576 300.246 326.769C299.468 326.907 298.103 328.273 296.576 328.748C295.625 329.044 295.102 327.948 295.531 327.05C296.247 325.551 297.28 323.383 298.005 321.861Z" fill="white"/>
<path d="M297.317 319.779C297.659 319.06 298.682 319.063 299.024 319.782L301.552 325.094C301.552 325.094 300.644 324.494 299.558 324.687C298.472 324.88 296.205 327.536 293.986 326.748C294.051 326.631 296.112 322.308 297.317 319.779Z" fill="#E6E6E6"/>
<path d="M297.03 318.02C297.372 317.301 298.395 317.303 298.737 318.023L301.265 323.335C301.265 323.335 300.357 322.735 299.271 322.928C298.185 323.121 295.917 325.777 293.699 324.989C293.764 324.872 295.825 320.549 297.03 318.02Z" fill="#CCCCCC"/>
</g>
</g>
<g clip-path="url(#clip4_1436_7058)">
<rect x="306.748" y="321.111" width="1.85725" height="7.96238" rx="0.928625" transform="rotate(25.4475 306.748 321.111)" fill="#E6E6E6"/>
<mask id="mask2_1436_7058" style="mask-type:alpha" maskUnits="userSpaceOnUse" x="300" y="321" width="8" height="8">
<path d="M303.694 328.275C304.036 328.994 305.059 328.991 305.401 328.272L307.929 322.96C307.929 322.96 307.021 323.559 305.935 323.367C305.116 323.221 303.625 321.675 301.991 321.262C301.152 321.049 300.706 322.013 301.079 322.793C301.804 324.309 302.924 326.658 303.694 328.275Z" fill="#D9D9D9"/>
</mask>
<g mask="url(#mask2_1436_7058)">
<path d="M303.694 328.274C304.037 328.993 305.059 328.991 305.402 328.271L307.929 322.96C307.929 322.96 307.021 323.559 305.935 323.367C305.157 323.229 303.792 321.862 302.265 321.387C301.315 321.091 300.792 322.188 301.221 323.086C301.937 324.584 302.97 326.752 303.694 328.274Z" fill="white"/>
<path d="M303.006 330.356C303.349 331.075 304.372 331.073 304.714 330.353L307.241 325.042C307.241 325.042 306.334 325.641 305.248 325.448C304.161 325.255 301.894 322.599 299.676 323.388C299.74 323.504 301.801 327.827 303.006 330.356Z" fill="#E6E6E6"/>
<path d="M302.719 332.115C303.062 332.835 304.085 332.832 304.427 332.112L306.954 326.801C306.954 326.801 306.047 327.4 304.96 327.207C303.874 327.014 301.607 324.358 299.389 325.147C299.453 325.263 301.514 329.587 302.719 332.115Z" fill="#CCCCCC"/>
</g>
</g>
<path d="M310.169 328.553C309.882 328.553 309.62 328.502 309.382 328.4C309.149 328.293 308.945 328.15 308.77 327.97C308.6 327.786 308.467 327.575 308.369 327.337C308.277 327.099 308.231 326.846 308.231 326.579C308.231 326.22 308.314 325.892 308.479 325.596C308.644 325.299 308.872 325.061 309.163 324.882C309.46 324.702 309.797 324.612 310.176 324.612C310.56 324.612 310.892 324.704 311.174 324.889C311.46 325.069 311.681 325.307 311.837 325.603C311.997 325.894 312.077 326.21 312.077 326.55C312.077 326.598 312.075 326.647 312.07 326.696C312.07 326.739 312.067 326.773 312.063 326.798H308.908C308.928 327.045 308.996 327.266 309.112 327.46C309.234 327.65 309.389 327.8 309.579 327.912C309.768 328.019 309.972 328.072 310.19 328.072C310.424 328.072 310.642 328.014 310.846 327.897C311.055 327.781 311.198 327.628 311.276 327.439L311.829 327.592C311.747 327.776 311.623 327.941 311.458 328.087C311.298 328.233 311.106 328.347 310.883 328.429C310.664 328.512 310.426 328.553 310.169 328.553ZM308.887 326.353H311.48C311.46 326.106 311.39 325.887 311.269 325.698C311.147 325.508 310.992 325.36 310.802 325.253C310.613 325.146 310.404 325.093 310.176 325.093C309.953 325.093 309.746 325.146 309.557 325.253C309.367 325.36 309.212 325.508 309.091 325.698C308.974 325.887 308.906 326.106 308.887 326.353ZM316.09 328.48H315.449V326.353C315.449 325.95 315.385 325.656 315.259 325.472C315.138 325.282 314.951 325.188 314.698 325.188C314.523 325.188 314.349 325.231 314.174 325.319C314.004 325.406 313.851 325.525 313.715 325.676C313.584 325.821 313.489 325.991 313.431 326.186V328.48H312.79V324.678H313.372V325.494C313.474 325.314 313.606 325.159 313.766 325.027C313.926 324.896 314.108 324.794 314.312 324.721C314.516 324.649 314.73 324.612 314.953 324.612C315.172 324.612 315.354 324.653 315.5 324.736C315.65 324.814 315.767 324.925 315.849 325.071C315.937 325.212 315.997 325.379 316.031 325.574C316.07 325.768 316.09 325.979 316.09 326.207V328.48ZM319.018 328.291C318.964 328.315 318.891 328.347 318.799 328.386C318.707 328.424 318.6 328.458 318.479 328.488C318.357 328.517 318.228 328.531 318.092 328.531C317.937 328.531 317.794 328.505 317.663 328.451C317.532 328.393 317.427 328.305 317.349 328.189C317.272 328.067 317.233 327.917 317.233 327.737V325.18H316.716V324.678H317.233V323.41H317.874V324.678H318.726V325.18H317.874V327.541C317.884 327.677 317.93 327.778 318.012 327.846C318.095 327.91 318.192 327.941 318.304 327.941C318.43 327.941 318.547 327.919 318.653 327.876C318.76 327.832 318.831 327.8 318.865 327.781L319.018 328.291ZM319.575 326.958V324.678H320.216V326.834C320.216 327.222 320.284 327.514 320.42 327.708C320.556 327.902 320.758 327.999 321.025 327.999C321.2 327.999 321.367 327.963 321.528 327.89C321.693 327.812 321.841 327.703 321.972 327.562C322.103 327.422 322.205 327.254 322.278 327.06V324.678H322.919V327.752C322.919 327.829 322.933 327.888 322.963 327.927C322.997 327.961 323.05 327.98 323.123 327.985V328.48C323.05 328.49 322.992 328.495 322.948 328.495C322.909 328.5 322.87 328.502 322.831 328.502C322.71 328.502 322.606 328.466 322.518 328.393C322.431 328.315 322.385 328.22 322.38 328.109L322.365 327.664C322.2 327.946 321.977 328.165 321.695 328.32C321.418 328.475 321.115 328.553 320.785 328.553C320.386 328.553 320.085 328.42 319.881 328.152C319.677 327.88 319.575 327.482 319.575 326.958ZM325.997 325.239C325.677 325.244 325.393 325.326 325.145 325.486C324.902 325.642 324.73 325.858 324.628 326.135V328.48H323.987V324.678H324.584V325.559C324.715 325.297 324.887 325.086 325.101 324.925C325.32 324.76 325.548 324.668 325.786 324.649C325.834 324.649 325.876 324.649 325.91 324.649C325.944 324.649 325.973 324.651 325.997 324.656V325.239ZM328.23 328.553C327.944 328.553 327.682 328.502 327.444 328.4C327.21 328.293 327.006 328.15 326.832 327.97C326.662 327.786 326.528 327.575 326.431 327.337C326.339 327.099 326.293 326.846 326.293 326.579C326.293 326.22 326.375 325.892 326.54 325.596C326.705 325.299 326.934 325.061 327.225 324.882C327.521 324.702 327.859 324.612 328.238 324.612C328.621 324.612 328.954 324.704 329.236 324.889C329.522 325.069 329.743 325.307 329.898 325.603C330.059 325.894 330.139 326.21 330.139 326.55C330.139 326.598 330.136 326.647 330.131 326.696C330.131 326.739 330.129 326.773 330.124 326.798H326.97C326.989 327.045 327.057 327.266 327.174 327.46C327.295 327.65 327.451 327.8 327.64 327.912C327.83 328.019 328.034 328.072 328.252 328.072C328.485 328.072 328.704 328.014 328.908 327.897C329.117 327.781 329.26 327.628 329.337 327.439L329.891 327.592C329.809 327.776 329.685 327.941 329.52 328.087C329.359 328.233 329.168 328.347 328.944 328.429C328.726 328.512 328.488 328.553 328.23 328.553ZM326.948 326.353H329.541C329.522 326.106 329.452 325.887 329.33 325.698C329.209 325.508 329.053 325.36 328.864 325.253C328.675 325.146 328.466 325.093 328.238 325.093C328.014 325.093 327.808 325.146 327.618 325.253C327.429 325.36 327.274 325.508 327.152 325.698C327.036 325.887 326.968 326.106 326.948 326.353ZM333.998 328.553C333.682 328.553 333.386 328.502 333.109 328.4C332.832 328.293 332.594 328.135 332.395 327.927L332.643 327.475C332.861 327.679 333.08 327.825 333.298 327.912C333.517 327.999 333.74 328.043 333.969 328.043C334.231 328.043 334.444 327.995 334.61 327.897C334.775 327.795 334.857 327.647 334.857 327.453C334.857 327.312 334.814 327.208 334.726 327.14C334.644 327.072 334.525 327.016 334.369 326.972C334.214 326.924 334.029 326.87 333.816 326.812C333.553 326.734 333.332 326.652 333.153 326.564C332.973 326.477 332.837 326.368 332.745 326.237C332.653 326.106 332.606 325.94 332.606 325.741C332.606 325.498 332.669 325.295 332.796 325.129C332.922 324.959 333.094 324.831 333.313 324.743C333.536 324.656 333.789 324.612 334.071 324.612C334.352 324.612 334.607 324.656 334.835 324.743C335.064 324.831 335.26 324.959 335.425 325.129L335.134 325.574C334.984 325.418 334.818 325.304 334.639 325.231C334.459 325.154 334.257 325.115 334.034 325.115C333.903 325.115 333.774 325.132 333.648 325.166C333.522 325.195 333.417 325.251 333.335 325.333C333.252 325.411 333.211 325.523 333.211 325.668C333.211 325.79 333.243 325.887 333.306 325.96C333.374 326.028 333.471 326.086 333.597 326.135C333.728 326.183 333.886 326.237 334.071 326.295C334.357 326.377 334.605 326.46 334.814 326.543C335.027 326.625 335.192 326.732 335.309 326.863C335.425 326.994 335.484 327.176 335.484 327.409C335.484 327.769 335.348 328.05 335.076 328.254C334.804 328.454 334.444 328.553 333.998 328.553ZM338.217 328.291C338.164 328.315 338.091 328.347 337.999 328.386C337.907 328.424 337.8 328.458 337.678 328.488C337.557 328.517 337.428 328.531 337.292 328.531C337.137 328.531 336.994 328.505 336.863 328.451C336.731 328.393 336.627 328.305 336.549 328.189C336.472 328.067 336.433 327.917 336.433 327.737V325.18H335.916V324.678H336.433V323.41H337.074V324.678H337.926V325.18H337.074V327.541C337.083 327.677 337.13 327.778 337.212 327.846C337.295 327.91 337.392 327.941 337.504 327.941C337.63 327.941 337.746 327.919 337.853 327.876C337.96 327.832 338.03 327.8 338.064 327.781L338.217 328.291ZM338.775 326.958V324.678H339.416V326.834C339.416 327.222 339.484 327.514 339.62 327.708C339.756 327.902 339.958 327.999 340.225 327.999C340.4 327.999 340.567 327.963 340.727 327.89C340.892 327.812 341.041 327.703 341.172 327.562C341.303 327.422 341.405 327.254 341.478 327.06V324.678H342.119V327.752C342.119 327.829 342.133 327.888 342.162 327.927C342.196 327.961 342.25 327.98 342.323 327.985V328.48C342.25 328.49 342.192 328.495 342.148 328.495C342.109 328.5 342.07 328.502 342.031 328.502C341.91 328.502 341.805 328.466 341.718 328.393C341.631 328.315 341.584 328.22 341.58 328.109L341.565 327.664C341.4 327.946 341.177 328.165 340.895 328.32C340.618 328.475 340.315 328.553 339.984 328.553C339.586 328.553 339.285 328.42 339.081 328.152C338.877 327.88 338.775 327.482 338.775 326.958ZM342.939 326.586C342.939 326.227 343.012 325.899 343.157 325.603C343.308 325.302 343.512 325.061 343.769 324.882C344.031 324.702 344.33 324.612 344.665 324.612C344.971 324.612 345.246 324.692 345.488 324.853C345.731 325.013 345.921 325.207 346.057 325.435V323.163H346.698V327.752C346.698 327.829 346.712 327.888 346.741 327.927C346.775 327.961 346.829 327.98 346.901 327.985V328.48C346.78 328.5 346.685 328.509 346.617 328.509C346.491 328.509 346.379 328.466 346.282 328.378C346.19 328.291 346.144 328.194 346.144 328.087V327.766C345.993 328.009 345.792 328.201 345.539 328.342C345.287 328.483 345.025 328.553 344.753 328.553C344.49 328.553 344.248 328.502 344.024 328.4C343.806 328.293 343.614 328.148 343.449 327.963C343.288 327.778 343.162 327.57 343.07 327.337C342.982 327.099 342.939 326.849 342.939 326.586ZM346.057 327.147V326.055C345.998 325.889 345.904 325.741 345.772 325.61C345.641 325.474 345.493 325.367 345.328 325.29C345.168 325.207 345.008 325.166 344.847 325.166C344.658 325.166 344.485 325.207 344.33 325.29C344.18 325.367 344.048 325.474 343.937 325.61C343.83 325.741 343.747 325.892 343.689 326.062C343.631 326.232 343.602 326.409 343.602 326.594C343.602 326.783 343.633 326.963 343.696 327.133C343.764 327.303 343.857 327.453 343.973 327.584C344.095 327.715 344.233 327.817 344.388 327.89C344.549 327.963 344.721 327.999 344.906 327.999C345.022 327.999 345.141 327.978 345.263 327.934C345.389 327.89 345.508 327.829 345.619 327.752C345.731 327.674 345.826 327.584 345.904 327.482C345.981 327.375 346.032 327.264 346.057 327.147ZM347.768 328.48V324.678H348.409V328.48H347.768ZM347.768 323.964V323.163H348.409V323.964H347.768ZM351.107 328.553C350.821 328.553 350.561 328.502 350.328 328.4C350.095 328.293 349.893 328.15 349.723 327.97C349.553 327.786 349.422 327.575 349.33 327.337C349.238 327.099 349.192 326.849 349.192 326.586C349.192 326.319 349.238 326.067 349.33 325.829C349.422 325.591 349.553 325.382 349.723 325.202C349.893 325.018 350.095 324.874 350.328 324.772C350.566 324.666 350.828 324.612 351.115 324.612C351.396 324.612 351.654 324.666 351.887 324.772C352.12 324.874 352.321 325.018 352.491 325.202C352.666 325.382 352.8 325.591 352.892 325.829C352.984 326.067 353.03 326.319 353.03 326.586C353.03 326.849 352.984 327.099 352.892 327.337C352.8 327.575 352.669 327.786 352.499 327.97C352.329 328.15 352.125 328.293 351.887 328.4C351.654 328.502 351.394 328.553 351.107 328.553ZM349.847 326.594C349.847 326.856 349.903 327.094 350.015 327.307C350.131 327.521 350.284 327.691 350.474 327.817C350.663 327.939 350.874 327.999 351.107 327.999C351.34 327.999 351.552 327.936 351.741 327.81C351.935 327.684 352.088 327.514 352.2 327.3C352.317 327.082 352.375 326.841 352.375 326.579C352.375 326.317 352.317 326.079 352.2 325.865C352.088 325.651 351.935 325.481 351.741 325.355C351.552 325.229 351.34 325.166 351.107 325.166C350.874 325.166 350.663 325.231 350.474 325.362C350.284 325.489 350.131 325.659 350.015 325.872C349.903 326.086 349.847 326.326 349.847 326.594Z" fill="white"/>
<rect x="124.654" y="272.34" width="328.432" height="37.5657" rx="18.7828" fill="#292929"/>
<path d="M148.03 288.348H145.927V293.757H145.154V288.348H143.05V287.661H148.03V288.348ZM148.29 294.976C148.364 294.982 148.439 294.988 148.513 294.994C148.588 295.005 148.645 295.011 148.685 295.011C148.777 295.011 148.857 294.979 148.925 294.916C148.994 294.853 149.068 294.73 149.149 294.547C149.234 294.37 149.343 294.106 149.475 293.757L147.577 289.275H148.376L149.887 292.993L151.252 289.275H151.999L149.818 294.934C149.767 295.065 149.69 295.188 149.586 295.303C149.489 295.423 149.363 295.517 149.209 295.586C149.054 295.655 148.868 295.689 148.651 295.689C148.599 295.689 148.545 295.686 148.487 295.681C148.436 295.675 148.37 295.663 148.29 295.646V294.976ZM155.176 293.843C154.809 293.843 154.483 293.751 154.197 293.568C153.911 293.385 153.684 293.153 153.518 292.873V295.586H152.763V289.275H153.433V290.117C153.61 289.842 153.842 289.621 154.128 289.455C154.414 289.284 154.726 289.198 155.064 289.198C155.373 289.198 155.656 289.261 155.914 289.387C156.172 289.513 156.395 289.684 156.584 289.902C156.773 290.119 156.919 290.368 157.022 290.649C157.13 290.924 157.185 291.213 157.185 291.516C157.185 291.94 157.099 292.329 156.927 292.684C156.761 293.039 156.527 293.322 156.223 293.534C155.92 293.74 155.571 293.843 155.176 293.843ZM154.944 293.19C155.167 293.19 155.367 293.145 155.545 293.053C155.728 292.956 155.883 292.83 156.008 292.675C156.14 292.515 156.24 292.335 156.309 292.134C156.378 291.934 156.412 291.728 156.412 291.516C156.412 291.293 156.372 291.081 156.292 290.881C156.217 290.68 156.109 290.503 155.966 290.348C155.828 290.194 155.665 290.074 155.476 289.988C155.293 289.896 155.093 289.85 154.875 289.85C154.738 289.85 154.595 289.876 154.446 289.928C154.303 289.979 154.165 290.054 154.034 290.151C153.902 290.242 153.79 290.348 153.699 290.469C153.607 290.589 153.547 290.718 153.518 290.855V292.134C153.604 292.329 153.719 292.506 153.862 292.667C154.005 292.827 154.171 292.956 154.36 293.053C154.549 293.145 154.743 293.19 154.944 293.19ZM160.096 293.843C159.758 293.843 159.449 293.783 159.169 293.663C158.894 293.537 158.654 293.368 158.447 293.156C158.247 292.939 158.09 292.69 157.975 292.409C157.866 292.129 157.812 291.831 157.812 291.516C157.812 291.093 157.909 290.706 158.104 290.357C158.299 290.008 158.568 289.727 158.911 289.515C159.26 289.304 159.658 289.198 160.105 289.198C160.557 289.198 160.949 289.307 161.281 289.524C161.619 289.736 161.879 290.016 162.062 290.366C162.251 290.709 162.346 291.081 162.346 291.482C162.346 291.539 162.343 291.596 162.337 291.654C162.337 291.705 162.334 291.745 162.329 291.774H158.611C158.633 292.066 158.714 292.326 158.851 292.555C158.994 292.778 159.177 292.956 159.401 293.087C159.624 293.213 159.864 293.276 160.122 293.276C160.397 293.276 160.654 293.208 160.895 293.07C161.141 292.933 161.31 292.753 161.401 292.529L162.054 292.71C161.956 292.927 161.81 293.122 161.616 293.294C161.427 293.465 161.201 293.6 160.938 293.697C160.68 293.794 160.399 293.843 160.096 293.843ZM158.585 291.25H161.642C161.619 290.958 161.536 290.7 161.393 290.477C161.249 290.254 161.066 290.079 160.843 289.953C160.62 289.827 160.374 289.765 160.105 289.765C159.841 289.765 159.598 289.827 159.375 289.953C159.152 290.079 158.968 290.254 158.825 290.477C158.688 290.7 158.608 290.958 158.585 291.25ZM166.894 293.843C166.522 293.843 166.173 293.783 165.847 293.663C165.521 293.537 165.24 293.351 165.005 293.105L165.297 292.572C165.555 292.813 165.812 292.984 166.07 293.087C166.328 293.19 166.591 293.242 166.86 293.242C167.169 293.242 167.421 293.185 167.616 293.07C167.81 292.95 167.908 292.775 167.908 292.547C167.908 292.381 167.856 292.257 167.753 292.177C167.656 292.097 167.515 292.031 167.332 291.98C167.149 291.923 166.932 291.86 166.68 291.791C166.371 291.699 166.11 291.602 165.898 291.499C165.687 291.396 165.526 291.267 165.417 291.113C165.309 290.958 165.254 290.763 165.254 290.529C165.254 290.242 165.329 290.002 165.478 289.807C165.626 289.607 165.83 289.455 166.087 289.352C166.351 289.249 166.648 289.198 166.98 289.198C167.312 289.198 167.613 289.249 167.882 289.352C168.151 289.455 168.383 289.607 168.577 289.807L168.234 290.331C168.056 290.148 167.862 290.014 167.65 289.928C167.438 289.836 167.201 289.79 166.937 289.79C166.783 289.79 166.631 289.81 166.482 289.85C166.333 289.885 166.21 289.951 166.113 290.048C166.016 290.139 165.967 290.271 165.967 290.443C165.967 290.586 166.004 290.7 166.079 290.786C166.159 290.866 166.273 290.935 166.422 290.992C166.577 291.05 166.763 291.113 166.98 291.181C167.318 291.279 167.61 291.376 167.856 291.473C168.108 291.571 168.303 291.696 168.44 291.851C168.577 292.006 168.646 292.22 168.646 292.495C168.646 292.919 168.486 293.251 168.165 293.491C167.845 293.726 167.421 293.843 166.894 293.843ZM171.508 293.843C171.17 293.843 170.864 293.783 170.589 293.663C170.314 293.537 170.077 293.368 169.876 293.156C169.676 292.939 169.521 292.69 169.413 292.409C169.304 292.129 169.249 291.834 169.249 291.525C169.249 291.21 169.304 290.912 169.413 290.632C169.521 290.351 169.676 290.105 169.876 289.893C170.077 289.676 170.314 289.507 170.589 289.387C170.869 289.261 171.179 289.198 171.516 289.198C171.848 289.198 172.152 289.261 172.426 289.387C172.701 289.507 172.939 289.676 173.139 289.893C173.345 290.105 173.503 290.351 173.611 290.632C173.72 290.912 173.775 291.21 173.775 291.525C173.775 291.834 173.72 292.129 173.611 292.409C173.503 292.69 173.348 292.939 173.148 293.156C172.947 293.368 172.707 293.537 172.426 293.663C172.152 293.783 171.845 293.843 171.508 293.843ZM170.022 291.533C170.022 291.842 170.088 292.123 170.22 292.375C170.357 292.627 170.537 292.827 170.761 292.976C170.984 293.119 171.233 293.19 171.508 293.19C171.782 293.19 172.031 293.116 172.255 292.967C172.484 292.818 172.664 292.618 172.796 292.366C172.933 292.109 173.002 291.825 173.002 291.516C173.002 291.207 172.933 290.927 172.796 290.675C172.664 290.423 172.484 290.222 172.255 290.074C172.031 289.925 171.782 289.85 171.508 289.85C171.233 289.85 170.984 289.928 170.761 290.082C170.537 290.231 170.357 290.431 170.22 290.683C170.088 290.935 170.022 291.218 170.022 291.533ZM181.448 293.757H180.692V291.25C180.692 290.781 180.615 290.434 180.46 290.211C180.311 289.988 180.088 289.876 179.79 289.876C179.487 289.876 179.212 289.988 178.966 290.211C178.72 290.429 178.545 290.712 178.442 291.061V293.757H177.687V291.25C177.687 290.775 177.612 290.429 177.464 290.211C177.315 289.988 177.091 289.876 176.794 289.876C176.496 289.876 176.221 289.985 175.969 290.202C175.723 290.414 175.549 290.698 175.446 291.052V293.757H174.69V289.275H175.377V290.237C175.56 289.905 175.798 289.65 176.09 289.473C176.382 289.289 176.711 289.198 177.077 289.198C177.449 289.198 177.747 289.301 177.97 289.507C178.193 289.707 178.331 289.968 178.382 290.288C178.583 289.933 178.826 289.664 179.112 289.481C179.398 289.292 179.725 289.198 180.091 289.198C180.349 289.198 180.563 289.246 180.735 289.344C180.912 289.435 181.053 289.567 181.156 289.739C181.259 289.905 181.333 290.102 181.379 290.331C181.425 290.56 181.448 290.809 181.448 291.078V293.757ZM184.606 293.843C184.268 293.843 183.959 293.783 183.679 293.663C183.404 293.537 183.163 293.368 182.957 293.156C182.757 292.939 182.6 292.69 182.485 292.409C182.376 292.129 182.322 291.831 182.322 291.516C182.322 291.093 182.419 290.706 182.614 290.357C182.809 290.008 183.078 289.727 183.421 289.515C183.77 289.304 184.168 289.198 184.615 289.198C185.067 289.198 185.459 289.307 185.791 289.524C186.129 289.736 186.389 290.016 186.572 290.366C186.761 290.709 186.856 291.081 186.856 291.482C186.856 291.539 186.853 291.596 186.847 291.654C186.847 291.705 186.844 291.745 186.838 291.774H183.121C183.143 292.066 183.224 292.326 183.361 292.555C183.504 292.778 183.687 292.956 183.91 293.087C184.134 293.213 184.374 293.276 184.632 293.276C184.907 293.276 185.164 293.208 185.405 293.07C185.651 292.933 185.82 292.753 185.911 292.529L186.564 292.71C186.466 292.927 186.32 293.122 186.126 293.294C185.937 293.465 185.711 293.6 185.447 293.697C185.19 293.794 184.909 293.843 184.606 293.843ZM183.095 291.25H186.152C186.129 290.958 186.046 290.7 185.903 290.477C185.759 290.254 185.576 290.079 185.353 289.953C185.13 289.827 184.884 289.765 184.615 289.765C184.351 289.765 184.108 289.827 183.885 289.953C183.661 290.079 183.478 290.254 183.335 290.477C183.198 290.7 183.118 290.958 183.095 291.25ZM189.972 293.534C189.909 293.563 189.823 293.6 189.714 293.646C189.606 293.691 189.48 293.731 189.337 293.766C189.193 293.8 189.042 293.817 188.881 293.817C188.698 293.817 188.529 293.786 188.375 293.723C188.22 293.654 188.097 293.551 188.006 293.414C187.914 293.271 187.868 293.093 187.868 292.881V289.868H187.259V289.275H187.868V287.781H188.624V289.275H189.629V289.868H188.624V292.65C188.635 292.81 188.69 292.93 188.787 293.01C188.884 293.085 188.999 293.122 189.131 293.122C189.279 293.122 189.417 293.096 189.543 293.045C189.669 292.993 189.752 292.956 189.792 292.933L189.972 293.534ZM194.562 293.757H193.806V291.25C193.806 290.792 193.723 290.449 193.557 290.22C193.397 289.991 193.165 289.876 192.862 289.876C192.667 289.876 192.47 289.928 192.269 290.031C192.075 290.134 191.903 290.274 191.754 290.451C191.605 290.623 191.497 290.823 191.428 291.052V293.757H190.672V287.489H191.428V290.237C191.605 289.916 191.846 289.664 192.149 289.481C192.458 289.292 192.79 289.198 193.145 289.198C193.414 289.198 193.637 289.246 193.815 289.344C193.998 289.435 194.144 289.567 194.253 289.739C194.362 289.91 194.439 290.111 194.485 290.34C194.536 290.563 194.562 290.809 194.562 291.078V293.757ZM195.737 293.757V289.275H196.493V293.757H195.737ZM195.737 288.434V287.489H196.493V288.434H195.737ZM201.606 293.757H200.85V291.25C200.85 290.775 200.776 290.429 200.627 290.211C200.484 289.988 200.263 289.876 199.966 289.876C199.759 289.876 199.553 289.928 199.347 290.031C199.147 290.134 198.967 290.274 198.806 290.451C198.652 290.623 198.54 290.823 198.471 291.052V293.757H197.716V289.275H198.403V290.237C198.523 290.025 198.678 289.842 198.866 289.687C199.055 289.533 199.27 289.412 199.51 289.327C199.751 289.241 200.003 289.198 200.266 289.198C200.524 289.198 200.738 289.246 200.91 289.344C201.087 289.435 201.225 289.567 201.322 289.739C201.425 289.905 201.497 290.102 201.537 290.331C201.583 290.56 201.606 290.809 201.606 291.078V293.757ZM204.567 293.809C204.263 293.809 203.983 293.749 203.725 293.628C203.473 293.502 203.256 293.334 203.072 293.122C202.889 292.904 202.746 292.658 202.643 292.383C202.546 292.109 202.497 291.822 202.497 291.525C202.497 291.21 202.546 290.912 202.643 290.632C202.746 290.351 202.889 290.105 203.072 289.893C203.261 289.676 203.482 289.507 203.734 289.387C203.986 289.261 204.266 289.198 204.575 289.198C204.947 289.198 205.271 289.289 205.545 289.473C205.826 289.656 206.061 289.888 206.249 290.168V289.275H206.919V293.706C206.919 294.129 206.816 294.487 206.61 294.779C206.41 295.071 206.135 295.291 205.786 295.44C205.442 295.595 205.059 295.672 204.635 295.672C204.131 295.672 203.719 295.583 203.399 295.406C203.078 295.228 202.812 294.988 202.6 294.685L203.038 294.298C203.216 294.561 203.445 294.759 203.725 294.891C204.011 295.022 204.315 295.088 204.635 295.088C204.91 295.088 205.162 295.037 205.391 294.934C205.626 294.836 205.812 294.685 205.949 294.478C206.092 294.272 206.164 294.015 206.164 293.706V292.916C205.998 293.19 205.769 293.408 205.477 293.568C205.19 293.729 204.887 293.809 204.567 293.809ZM204.798 293.19C204.959 293.19 205.113 293.162 205.262 293.105C205.411 293.047 205.548 292.973 205.674 292.881C205.8 292.784 205.906 292.675 205.992 292.555C206.078 292.435 206.135 292.312 206.164 292.186V290.898C206.083 290.692 205.969 290.512 205.82 290.357C205.671 290.197 205.502 290.074 205.314 289.988C205.125 289.896 204.93 289.85 204.73 289.85C204.501 289.85 204.295 289.899 204.111 289.996C203.934 290.094 203.782 290.225 203.656 290.391C203.53 290.552 203.433 290.732 203.364 290.932C203.296 291.133 203.261 291.336 203.261 291.542C203.261 291.765 203.301 291.977 203.382 292.177C203.462 292.372 203.57 292.547 203.708 292.701C203.845 292.856 204.008 292.976 204.197 293.062C204.386 293.148 204.587 293.19 204.798 293.19ZM208.079 293.757V292.796H208.714V293.757H208.079ZM209.814 293.757V292.796H210.45V293.757H209.814ZM211.55 293.757V292.796H212.185V293.757H211.55Z" fill="#636363"/>
<rect x="124.656" y="173.066" width="4.30187" height="4.30187" rx="2.15093" fill="white"/>
<rect x="131.102" y="171.402" width="4.30187" height="4.30187" rx="2.15093" fill="white"/>
<rect x="137.562" y="173.066" width="4.30187" height="4.30187" rx="2.15093" fill="white"/>
</g>
<g clip-path="url(#clip5_1436_7058)">
<path d="M54 241.361C54 230.668 62.6684 222 73.3613 222H246V474.343C246 485.036 237.332 493.704 226.639 493.704H54V241.361Z" fill="white" fill-opacity="0.8"/>
<path d="M54 241.361C54 230.668 62.6684 222 73.3613 222H246V474.343C246 485.036 237.332 493.704 226.639 493.704H54V241.361Z" fill="url(#paint3_linear_1436_7058)" fill-opacity="0.2"/>
<rect x="57.5488" y="230.067" width="185.224" height="0.322689" fill="black" fill-opacity="0.04"/>
<rect x="57.5488" y="241.684" width="185.224" height="0.322689" fill="black" fill-opacity="0.04"/>
<rect x="57.5488" y="253.301" width="185.224" height="0.322689" fill="black" fill-opacity="0.04"/>
<rect x="57.5488" y="264.917" width="185.224" height="0.322689" fill="black" fill-opacity="0.04"/>
<rect x="57.5488" y="276.534" width="185.224" height="0.322689" fill="black" fill-opacity="0.04"/>
<rect x="57.5488" y="288.151" width="185.224" height="0.322689" fill="black" fill-opacity="0.04"/>
<rect x="57.5488" y="299.768" width="185.224" height="0.322689" fill="black" fill-opacity="0.04"/>
<rect x="57.5488" y="311.385" width="185.224" height="0.322689" fill="black" fill-opacity="0.04"/>
<rect x="57.5488" y="323.001" width="185.224" height="0.322689" fill="black" fill-opacity="0.04"/>
<rect x="57.5488" y="334.618" width="185.224" height="0.322689" fill="black" fill-opacity="0.04"/>
<rect x="57.5488" y="346.235" width="185.224" height="0.322689" fill="black" fill-opacity="0.04"/>
<rect x="57.5488" y="357.852" width="185.224" height="0.322689" fill="black" fill-opacity="0.04"/>
<rect x="57.5488" y="369.469" width="185.224" height="0.322689" fill="black" fill-opacity="0.04"/>
<rect x="57.5488" y="381.086" width="185.224" height="0.322689" fill="black" fill-opacity="0.04"/>
<rect x="57.5488" y="392.702" width="185.224" height="0.322689" fill="black" fill-opacity="0.04"/>
<rect x="57.5488" y="404.319" width="185.224" height="0.322689" fill="black" fill-opacity="0.04"/>
<rect x="57.5488" y="415.936" width="185.224" height="0.322689" fill="black" fill-opacity="0.04"/>
<rect x="57.5488" y="427.553" width="185.224" height="0.322689" fill="black" fill-opacity="0.04"/>
<rect x="57.5488" y="439.17" width="185.224" height="0.322689" fill="black" fill-opacity="0.04"/>
<rect x="57.5488" y="450.786" width="185.224" height="0.322689" fill="black" fill-opacity="0.04"/>
<rect x="57.5488" y="462.403" width="185.224" height="0.322689" fill="black" fill-opacity="0.04"/>
<rect x="57.5488" y="474.02" width="185.224" height="0.322689" fill="black" fill-opacity="0.04"/>
<rect x="57.5488" y="485.637" width="185.224" height="0.322689" fill="black" fill-opacity="0.04"/>
<rect x="72" y="235" width="110" height="13" rx="6.5" fill="white" fill-opacity="0.6"/>
<rect x="72" y="254" width="49" height="7" rx="3.5" fill="white" fill-opacity="0.6"/>
<rect x="72" y="265" width="158" height="3" rx="1.5" fill="white" fill-opacity="0.6"/>
<rect x="72" y="272" width="158" height="3" rx="1.5" fill="white" fill-opacity="0.6"/>
<rect x="72" y="279" width="158" height="3" rx="1.5" fill="white" fill-opacity="0.6"/>
<rect x="72" y="286" width="158" height="3" rx="1.5" fill="white" fill-opacity="0.6"/>
<rect x="72" y="293" width="158" height="3" rx="1.5" fill="white" fill-opacity="0.6"/>
<rect x="72" y="300" width="84" height="3" rx="1.5" fill="white" fill-opacity="0.6"/>
<rect x="72" y="312" width="49" height="7" rx="3.5" fill="white" fill-opacity="0.6"/>
<rect x="72" y="323" width="158" height="3" rx="1.5" fill="white" fill-opacity="0.6"/>
<rect x="72" y="330" width="158" height="3" rx="1.5" fill="white" fill-opacity="0.6"/>
<rect x="72" y="337" width="158" height="3" rx="1.5" fill="white" fill-opacity="0.6"/>
<rect x="72" y="344" width="158" height="3" rx="1.5" fill="white" fill-opacity="0.6"/>
<rect x="72" y="351" width="158" height="3" rx="1.5" fill="white" fill-opacity="0.6"/>
<rect x="72" y="358" width="84" height="3" rx="1.5" fill="white" fill-opacity="0.6"/>
<rect x="72" y="370" width="49" height="7" rx="3.5" fill="white" fill-opacity="0.6"/>
<rect x="72" y="381" width="158" height="3" rx="1.5" fill="white" fill-opacity="0.6"/>
<rect x="72" y="388" width="158" height="3" rx="1.5" fill="white" fill-opacity="0.6"/>
<rect x="72" y="395" width="158" height="3" rx="1.5" fill="white" fill-opacity="0.6"/>
<rect x="72" y="402" width="158" height="3" rx="1.5" fill="white" fill-opacity="0.6"/>
<rect x="72" y="409" width="158" height="3" rx="1.5" fill="white" fill-opacity="0.6"/>
<rect x="72" y="416" width="84" height="3" rx="1.5" fill="white" fill-opacity="0.6"/>
<rect x="72" y="428" width="49" height="7" rx="3.5" fill="white" fill-opacity="0.6"/>
<rect x="72" y="439" width="158" height="3" rx="1.5" fill="white" fill-opacity="0.6"/>
<rect x="72" y="446" width="158" height="3" rx="1.5" fill="white" fill-opacity="0.6"/>
<rect x="72" y="453" width="158" height="3" rx="1.5" fill="white" fill-opacity="0.6"/>
<rect x="72" y="460" width="158" height="3" rx="1.5" fill="white" fill-opacity="0.6"/>
<rect x="72" y="467" width="158" height="3" rx="1.5" fill="white" fill-opacity="0.6"/>
<rect x="72" y="474" width="84" height="3" rx="1.5" fill="white" fill-opacity="0.6"/>
</g>
</g>
<defs>
<filter id="filter0_f_1436_7058" x="236.671" y="50.6706" width="598.339" height="614.659" filterUnits="userSpaceOnUse" color-interpolation-filters="sRGB">
<feFlood flood-opacity="0" result="BackgroundImageFix"/>
<feBlend mode="normal" in="SourceGraphic" in2="BackgroundImageFix" result="shape"/>
<feGaussianBlur stdDeviation="82.1647" result="effect1_foregroundBlur_1436_7058"/>
</filter>
<linearGradient id="paint0_linear_1436_7058" x1="-35.5111" y1="-17.6493" x2="166.226" y2="623.27" gradientUnits="userSpaceOnUse">
<stop stop-color="#99F7FE"/>
<stop offset="1" stop-color="#B900B9"/>
</linearGradient>
<linearGradient id="paint1_linear_1436_7058" x1="232.671" y1="121.975" x2="433.938" y2="184.556" gradientUnits="userSpaceOnUse">
<stop stop-color="#FDDFE1"/>
<stop offset="1" stop-color="#F9F7F6"/>
</linearGradient>
<linearGradient id="paint2_linear_1436_7058" x1="202.396" y1="116.491" x2="205.656" y2="176.543" gradientUnits="userSpaceOnUse">
<stop stop-color="#E6EEEF" stop-opacity="0.54"/>
<stop offset="1" stop-color="#FADCDC" stop-opacity="0.4"/>
</linearGradient>
<linearGradient id="paint3_linear_1436_7058" x1="203.106" y1="218.198" x2="-1.16605" y2="382.125" gradientUnits="userSpaceOnUse">
<stop stop-color="#FCC201"/>
<stop offset="1" stop-color="#CB0295"/>
</linearGradient>
<clipPath id="clip0_1436_7058">
<rect width="470" height="538" fill="white"/>
</clipPath>
<clipPath id="clip1_1436_7058">
<rect x="32" y="91" width="513.577" height="319" rx="12.8797" fill="white"/>
</clipPath>
<clipPath id="clip2_1436_7058">
<rect width="269.68" height="286" fill="white" transform="translate(401 215)"/>
</clipPath>
<clipPath id="clip3_1436_7058">
<rect width="7.06456" height="7.49208" fill="white" transform="matrix(1 0 0 -1 295.379 328.814)"/>
</clipPath>
<clipPath id="clip4_1436_7058">
<rect width="7.06456" height="7.49208" fill="white" transform="translate(301.064 321.322)"/>
</clipPath>
<clipPath id="clip5_1436_7058">
<path d="M54 241.361C54 230.668 62.6684 222 73.3613 222H246V474.343C246 485.036 237.332 493.704 226.639 493.704H54V241.361Z" fill="white"/>
</clipPath>
</defs>
</svg>
